              <svg
                width="841"
                height="234"
                viewBox="0 0 841 234"
                fill="none"
                xmlns="http://www.w3.org/2000/svg"
              >
                <g clip-path="url(#clip0_1998_144004)">
                  <rect width="841" height="234" rx="6" fill="#1A1A1A" />
                  <path
                    d="M753.283 27.5384C747.103 8.54349 726.486 -1.91187 707.235 4.18562L553.858 52.7641C534.607 58.8616 524.01 79.2031 530.19 98.198L579.425 249.529C585.605 268.523 606.221 278.979 625.473 272.881L778.85 224.303C798.101 218.205 808.698 197.864 802.518 178.869L753.283 27.5384Z"
                    fill="black"
                  />
                  <path
                    d="M753.283 27.5384C747.103 8.54349 726.486 -1.91187 707.235 4.18562L553.858 52.7641C534.607 58.8616 524.01 79.2031 530.19 98.198L579.425 249.529C585.605 268.523 606.221 278.979 625.473 272.881L778.85 224.303C798.101 218.205 808.698 197.864 802.518 178.869L753.283 27.5384Z"
                    fill="url(#paint0_radial_1998_144004)"
                    fill-opacity="0.2"
                  />
                  <path
                    d="M666.202 138.586C662.907 128.455 668.558 117.606 678.825 114.354C689.093 111.102 700.088 116.679 703.384 126.809C706.68 136.94 701.029 147.789 690.761 151.041C680.494 154.293 669.498 148.716 666.202 138.586Z"
                    fill="#1ABCFE"
                  />
                  <path
                    d="M640.983 187.03C637.688 176.9 643.339 166.051 653.607 162.799L672.198 156.911L678.166 175.253C681.462 185.384 675.811 196.233 665.543 199.485C655.275 202.737 644.279 197.161 640.983 187.03Z"
                    fill="#0ACF83"
                  />
                  <path
                    d="M648.312 83.5391L660.248 120.225L678.839 114.337C689.107 111.085 694.758 100.236 691.462 90.1059C688.166 79.975 677.171 74.3988 666.903 77.6509L648.312 83.5391Z"
                    fill="#FF7262"
                  />
                  <path
                    d="M617.101 113.675C620.397 123.806 631.392 129.382 641.66 126.13L660.251 120.241L648.315 83.5553L629.724 89.4437C619.456 92.6958 613.805 103.545 617.101 113.675Z"
                    fill="#F24E1E"
                  />
                  <path
                    d="M629.062 150.367C632.358 160.498 643.353 166.074 653.621 162.822L672.212 156.933L660.276 120.247L641.685 126.135C631.417 129.387 625.766 140.237 629.062 150.367Z"
                    fill="#A259FF"
                  />
                  <path
                    d="M74.2818 82.0276H77.3398V93.116C77.3398 94.3204 77.0525 95.3867 76.4779 96.3149C75.9088 97.2431 75.1022 97.9669 74.058 98.4862C73.0193 99 71.8204 99.2569 70.4613 99.2569C69.0912 99.2569 67.8867 99 66.8481 98.4862C65.8094 97.9669 65.0055 97.2431 64.4365 96.3149C63.8674 95.3867 63.5829 94.3204 63.5829 93.116V82.0276H66.6243V92.8674C66.6243 93.5746 66.7818 94.2072 67.0967 94.7652C67.4116 95.3232 67.8591 95.7569 68.4392 96.0663C69.0193 96.3757 69.6934 96.5304 70.4613 96.5304C71.2293 96.5304 71.9033 96.3757 72.4834 96.0663C73.0635 95.7569 73.5083 95.3232 73.8177 94.7652C74.1271 94.2072 74.2818 93.5746 74.2818 92.8674V82.0276ZM83.5462 82.0276V99H80.5047V82.0276H83.5462ZM93.4781 81.232L88.0085 101.552H85.398L90.8676 81.232H93.4781ZM106.016 82.0276H109.074V93.116C109.074 94.3204 108.787 95.3867 108.212 96.3149C107.643 97.2431 106.837 97.9669 105.792 98.4862C104.754 99 103.555 99.2569 102.196 99.2569C100.826 99.2569 99.6211 99 98.5824 98.4862C97.5438 97.9669 96.7399 97.2431 96.1708 96.3149C95.6018 95.3867 95.3172 94.3204 95.3172 93.116V82.0276H98.3587V92.8674C98.3587 93.5746 98.5161 94.2072 98.8311 94.7652C99.146 95.3232 99.5935 95.7569 100.174 96.0663C100.754 96.3757 101.428 96.5304 102.196 96.5304C102.964 96.5304 103.638 96.3757 104.218 96.0663C104.798 95.7569 105.243 95.3232 105.552 94.7652C105.861 94.2072 106.016 93.5746 106.016 92.8674V82.0276ZM114.767 82.0276L118.513 88.2597H118.645L122.416 82.0276H125.905L120.667 90.5138L125.979 99H122.441L118.645 92.8177H118.513L114.725 99H111.195L116.565 90.5138L111.261 82.0276H114.767ZM150.559 79.9227V95.2293H147.948V79.9227H150.559ZM151.155 98.5608V100.674H136.545V98.5608H151.155ZM139.172 93.6713V99.3895H136.545V93.6713H139.172ZM139.014 81.3149C140.075 81.3149 141.039 81.5442 141.907 82.0028C142.78 82.4558 143.465 83.0829 143.962 83.884C144.465 84.6851 144.716 85.5912 144.716 86.6022C144.716 87.6243 144.465 88.5414 143.962 89.3536C143.465 90.1602 142.782 90.7901 141.915 91.2431C141.047 91.6961 140.081 91.9199 139.014 91.9144C137.948 91.9199 136.978 91.6961 136.105 91.2431C135.238 90.7901 134.553 90.1602 134.05 89.3536C133.553 88.5414 133.304 87.6243 133.304 86.6022C133.304 85.5912 133.553 84.6851 134.05 83.884C134.553 83.0829 135.241 82.4558 136.114 82.0028C136.987 81.5442 137.954 81.3149 139.014 81.3149ZM139.014 83.5856C138.412 83.5856 137.871 83.7099 137.39 83.9586C136.909 84.2072 136.531 84.5608 136.255 85.0193C135.984 85.4779 135.849 86.0055 135.849 86.6022C135.849 87.2155 135.984 87.7514 136.255 88.2099C136.531 88.6685 136.907 89.0221 137.382 89.2707C137.862 89.5193 138.407 89.6436 139.014 89.6436C139.605 89.6436 140.139 89.5193 140.614 89.2707C141.089 89.0221 141.465 88.6685 141.741 88.2099C142.017 87.7514 142.155 87.2155 142.155 86.6022C142.155 86.0055 142.017 85.4779 141.741 85.0193C141.465 84.5608 141.089 84.2072 140.614 83.9586C140.139 83.7099 139.605 83.5856 139.014 83.5856ZM169.179 85.7155V87.8122H165.002V85.7155H169.179ZM171.408 79.9227V95.5691H168.806V79.9227H171.408ZM171.931 98.5608V100.674H157.478V98.5608H171.931ZM160.105 94.2265V99.9613H157.478V94.2265H160.105ZM156.317 90.4309C158.466 90.4309 160.168 90.3978 161.422 90.3315C162.676 90.2652 163.939 90.1243 165.21 89.9088L165.442 91.9807C164.127 92.2182 162.806 92.3785 161.48 92.4613C160.154 92.5387 158.433 92.5746 156.317 92.5691H154.701V90.4309H156.317ZM164.331 81.547V83.6436H157.287V90.7127H154.701V81.547H164.331ZM163.685 85.9309V87.9945H156.483V85.9309H163.685ZM190.543 84.6961V86.8011H186.432V84.6961H190.543ZM190.477 88.8978V90.9945H186.399V88.8978H190.477ZM186.275 82.0028V84.0663H174.449V82.0028H186.275ZM180.466 84.9116C181.416 84.9116 182.264 85.0773 183.01 85.4088C183.761 85.7403 184.35 86.2072 184.775 86.8094C185.2 87.4061 185.416 88.0912 185.421 88.8646C185.416 89.6381 185.2 90.3232 184.775 90.9199C184.35 91.5166 183.761 91.9779 183.01 92.3039C182.264 92.6298 181.416 92.7928 180.466 92.7928C179.504 92.7928 178.651 92.6298 177.905 92.3039C177.164 91.9779 176.587 91.5193 176.173 90.9282C175.758 90.3315 175.554 89.6436 175.559 88.8646C175.554 88.0912 175.758 87.4061 176.173 86.8094C176.587 86.2072 177.164 85.7403 177.905 85.4088C178.651 85.0773 179.504 84.9116 180.466 84.9116ZM180.466 86.8591C179.963 86.8591 179.524 86.942 179.148 87.1077C178.772 87.268 178.482 87.5 178.278 87.8039C178.079 88.1022 177.982 88.4558 177.988 88.8646C177.982 89.279 178.079 89.6354 178.278 89.9337C178.482 90.2265 178.769 90.453 179.14 90.6133C179.515 90.768 179.957 90.8453 180.466 90.8453C180.963 90.8453 181.399 90.768 181.775 90.6133C182.156 90.453 182.455 90.2238 182.67 89.9254C182.885 89.6271 182.993 89.2735 182.993 88.8646C182.993 88.4558 182.885 88.1022 182.67 87.8039C182.455 87.5 182.156 87.268 181.775 87.1077C181.394 86.942 180.957 86.8591 180.466 86.8591ZM181.783 79.7238V83.4199H179.189V79.7238H181.783ZM192.151 79.9061V93.4641H189.548V79.9061H192.151ZM185.032 93.6961C186.518 93.6961 187.803 93.8398 188.885 94.1271C189.968 94.4144 190.8 94.837 191.38 95.395C191.966 95.953 192.258 96.616 192.258 97.384C192.258 98.1464 191.966 98.8011 191.38 99.3481C190.8 99.9006 189.966 100.323 188.877 100.616C187.794 100.914 186.513 101.061 185.032 101.055C183.54 101.061 182.25 100.914 181.162 100.616C180.073 100.323 179.236 99.9006 178.651 99.3481C178.071 98.8011 177.78 98.1464 177.78 97.384C177.78 96.616 178.071 95.953 178.651 95.395C179.236 94.837 180.073 94.4144 181.162 94.1271C182.25 93.8398 183.54 93.6961 185.032 93.6961ZM185.032 95.6851C184.065 95.6906 183.245 95.7569 182.571 95.884C181.902 96.011 181.391 96.2017 181.037 96.4558C180.689 96.7044 180.518 97.0138 180.524 97.384C180.518 97.7431 180.692 98.0497 181.046 98.3039C181.399 98.558 181.913 98.7514 182.587 98.884C183.261 99.011 184.076 99.0718 185.032 99.0663C185.971 99.0718 186.772 99.011 187.435 98.884C188.104 98.7514 188.612 98.558 188.96 98.3039C189.308 98.0497 189.482 97.7431 189.482 97.384C189.482 97.0138 189.308 96.7044 188.96 96.4558C188.612 96.2017 188.106 96.011 187.443 95.884C186.786 95.7569 185.982 95.6906 185.032 95.6851ZM220.212 96.3481V98.5276H200.845V96.3481H220.212ZM218.522 81.8619V83.9669H202.428V81.8619H218.522ZM218.439 90.7044V92.7762H202.494V90.7044H218.439ZM208.088 83.7597V90.9033H205.494V83.7597H208.088ZM215.414 83.7597V90.9033H212.845V83.7597H215.414ZM240.955 96.4724V98.6271H221.587V96.4724H240.955ZM232.518 92.2873V97.384H229.933V92.2873H232.518ZM238.659 81.3481V88.1519H226.485V91.9807H223.883V86.0884H236.082V83.453H223.85V81.3481H238.659ZM239.148 90.8867V93.0166H223.883V90.8867H239.148ZM257.976 81.953V84.0663H244.368V81.953H257.976ZM261.631 96.0414V98.1878H242.329V96.0414H261.631ZM259.177 84.3564V84.4558C259.177 85.6934 259.164 86.7652 259.136 87.6713C259.108 88.5718 259.039 89.6022 258.929 90.7624C258.818 91.9227 258.644 93.1878 258.407 94.558L255.763 94.3343C256.012 93.0635 256.197 91.8619 256.318 90.7293C256.44 89.5912 256.515 88.5718 256.542 87.6713C256.57 86.7652 256.586 85.7099 256.592 84.5055V84.3564V81.953H259.177V84.3564ZM281.188 79.9227V92.453H278.71V79.9227H281.188ZM279.422 85.0276V87.1409H275.743V85.0276H279.422ZM276.497 80.3122V92.2459H274.069V80.3122H276.497ZM281.188 93.3564V100.823H266.892V93.3564H281.188ZM269.486 95.4365V98.7182H278.61V95.4365H269.486ZM265.409 89.6188C266.547 89.6188 267.511 89.6077 268.301 89.5856C269.096 89.558 269.875 89.5055 270.638 89.4282C271.406 89.3453 272.188 89.2265 272.983 89.0718L273.232 91.1354C272.038 91.3508 270.878 91.4917 269.751 91.558C268.624 91.6188 267.177 91.6492 265.409 91.6492H263.967V89.6188H265.409ZM271.989 81.2072V87.3315H266.494V91.1602H263.967V85.3757H269.478V83.2707H263.933V81.2072H271.989ZM299.802 82.0939V84.1906H290.446V82.0939H299.802ZM295.99 88.1602V95.337H293.429V88.1602H295.99ZM301.352 83.6022V83.7762C301.346 84.6768 301.332 85.4889 301.31 86.2127C301.288 86.9309 301.233 87.7735 301.144 88.7403C301.062 89.7017 300.932 90.7238 300.755 91.8066L298.186 91.5994C298.357 90.5166 298.484 89.5028 298.567 88.558C298.65 87.6077 298.7 86.7818 298.716 86.0801C298.738 85.3729 298.752 84.5773 298.758 83.6934V83.6022V82.0939H301.352V83.6022ZM306.125 79.9061V101.072H303.498V79.9061H306.125ZM309.191 88.5249V90.7293H305.363V88.5249H309.191ZM289.318 94.5331C291.86 94.5221 294.202 94.4751 296.346 94.3923C298.49 94.3094 300.506 94.1492 302.396 93.9116L302.545 95.8508C300.573 96.1768 298.501 96.395 296.33 96.5055C294.158 96.6105 291.907 96.6547 289.575 96.6381L289.318 94.5331ZM326.097 85.1851V87.3149H321.771V85.1851H326.097ZM327.994 79.9061V92.4945H325.392V79.9061H327.994ZM320.826 93.0166C322.312 93.0166 323.599 93.1768 324.688 93.4972C325.776 93.8177 326.608 94.2818 327.182 94.8895C327.762 95.4917 328.052 96.2127 328.052 97.0525C328.052 97.8978 327.762 98.6215 327.182 99.2238C326.608 99.826 325.776 100.287 324.688 100.608C323.605 100.928 322.318 101.088 320.826 101.088C319.34 101.088 318.052 100.928 316.964 100.608C315.881 100.287 315.052 99.826 314.478 99.2238C313.903 98.6215 313.616 97.8978 313.616 97.0525C313.616 96.2127 313.906 95.4917 314.486 94.8895C315.066 94.2818 315.895 93.8177 316.972 93.4972C318.055 93.1768 319.34 93.0166 320.826 93.0166ZM320.826 95.0221C319.842 95.0221 319.003 95.0994 318.307 95.2541C317.616 95.4033 317.091 95.6326 316.732 95.942C316.378 96.2459 316.204 96.616 316.21 97.0525C316.204 97.489 316.378 97.8591 316.732 98.163C317.091 98.4613 317.616 98.6878 318.307 98.8425C319.003 98.9972 319.842 99.0718 320.826 99.0663C321.815 99.0718 322.655 98.9972 323.345 98.8425C324.036 98.6878 324.561 98.4613 324.92 98.163C325.284 97.8591 325.467 97.489 325.467 97.0525C325.467 96.616 325.284 96.2459 324.92 95.942C324.561 95.6326 324.036 95.4033 323.345 95.2541C322.655 95.0994 321.815 95.0221 320.826 95.0221ZM317.519 83.5442C317.514 84.8867 317.279 86.1464 316.815 87.3232C316.356 88.5 315.679 89.5331 314.784 90.4227C313.889 91.3122 312.809 91.9807 311.544 92.4282L310.185 90.3646C311.284 89.9889 312.224 89.4475 313.003 88.7403C313.787 88.0276 314.378 87.2238 314.776 86.3287C315.179 85.4282 315.381 84.5 315.381 83.5442V82.0359H317.519V83.5442ZM318.033 83.5193C318.033 84.4033 318.221 85.2569 318.597 86.0801C318.978 86.9033 319.544 87.6436 320.295 88.3011C321.047 88.953 321.953 89.4558 323.014 89.8094L321.713 91.8729C320.481 91.453 319.428 90.8232 318.555 89.9834C317.682 89.1436 317.022 88.1685 316.574 87.058C316.127 85.9475 315.906 84.768 315.912 83.5193V82.0359H318.033V83.5193ZM322.417 81.2818V83.3867H310.964V81.2818H322.417ZM354.879 79.9061V101.072H352.368V79.9061H354.879ZM353.164 88.0939V90.2072H349.377V88.0939H353.164ZM345.863 82.558C345.857 84.5856 345.609 86.4448 345.117 88.1354C344.631 89.826 343.81 91.3923 342.656 92.8343C341.506 94.2762 339.965 95.5497 338.031 96.6547L336.523 94.8398C338.181 93.884 339.512 92.8177 340.518 91.6409C341.529 90.4586 342.258 89.163 342.705 87.7541C343.153 86.3453 343.379 84.779 343.385 83.0552V82.558H345.863ZM344.156 82.558V84.6713H337.501V82.558H344.156ZM350.089 80.4696V100.094H347.661V80.4696H350.089ZM374.146 79.9061V92.3287H371.528V79.9061H374.146ZM377.105 85.0691V87.1906H373.417V85.0691H377.105ZM368.287 81.3564C368.287 83.1961 367.901 84.8591 367.127 86.3453C366.354 87.8315 365.227 89.105 363.746 90.1657C362.271 91.2265 360.489 92.0552 358.401 92.6519L357.348 90.547C359.077 90.0718 360.553 89.442 361.774 88.6575C362.995 87.8674 363.92 86.9613 364.55 85.9392C365.185 84.9116 365.506 83.8066 365.511 82.6243V81.3564H368.287ZM367.077 81.3564V83.4613H358.326V81.3564H367.077ZM367.301 92.5773C368.727 92.5773 369.97 92.7514 371.03 93.0994C372.097 93.442 372.92 93.9309 373.5 94.5663C374.086 95.2017 374.378 95.9503 374.378 96.8122C374.378 97.6851 374.086 98.442 373.5 99.0829C372.92 99.7238 372.097 100.215 371.03 100.558C369.97 100.901 368.727 101.072 367.301 101.072C365.881 101.072 364.635 100.901 363.564 100.558C362.492 100.215 361.663 99.7238 361.077 99.0829C360.497 98.442 360.21 97.6851 360.216 96.8122C360.21 95.9558 360.5 95.2099 361.086 94.5746C361.671 93.9337 362.5 93.442 363.572 93.0994C364.644 92.7514 365.887 92.5773 367.301 92.5773ZM367.301 94.6243C366.367 94.6188 365.561 94.7017 364.881 94.8729C364.202 95.0442 363.682 95.2956 363.323 95.6271C362.964 95.9586 362.787 96.3536 362.793 96.8122C362.787 97.2707 362.964 97.6685 363.323 98.0055C363.682 98.337 364.202 98.5912 364.881 98.768C365.566 98.9392 366.373 99.0249 367.301 99.0249C368.229 99.0249 369.03 98.9392 369.704 98.768C370.378 98.5912 370.898 98.337 371.262 98.0055C371.627 97.6685 371.809 97.2707 371.809 96.8122C371.809 96.3536 371.627 95.9586 371.262 95.6271C370.898 95.2956 370.378 95.0442 369.704 94.8729C369.03 94.7017 368.229 94.6188 367.301 94.6243Z"
                    fill="#2DD7A2"
                  />
                  <path
                    d="M72.8564 122.674V123.878H63.8287V122.674H72.8564ZM75.2818 132.21V133.436H62.5193V132.21H75.2818ZM67.011 127.669V132.652H65.5304V127.669H67.011ZM73.8895 124.166V124.276C73.8858 125.053 73.8729 125.72 73.8508 126.276C73.8324 126.829 73.7864 127.46 73.7127 128.171C73.6427 128.878 73.5322 129.639 73.3812 130.453L71.9227 130.298C72.07 129.525 72.1786 128.794 72.2486 128.105C72.3186 127.413 72.3628 126.786 72.3812 126.227C72.3996 125.663 72.4088 125.013 72.4088 124.276V124.166V122.674H73.8895V124.166ZM70.4862 127.669V132.652H69.0276V127.669H70.4862ZM81.0933 128.575V131.354H79.6071V128.575H81.0933ZM85.8116 128.575V131.337H84.353V128.575H85.8116ZM89.1099 128.006V129.204H76.3475V128.006H89.1099ZM87.5408 130.823V135.326H86.0491V132H77.7618V130.823H87.5408ZM82.7176 121.641C83.7342 121.637 84.6163 121.744 85.364 121.961C86.1154 122.179 86.6937 122.49 87.0988 122.895C87.5077 123.3 87.7121 123.781 87.7121 124.337C87.7121 124.901 87.5077 125.385 87.0988 125.79C86.6937 126.195 86.1154 126.506 85.364 126.724C84.6163 126.941 83.7342 127.048 82.7176 127.044C81.7011 127.048 80.8152 126.941 80.0602 126.724C79.3088 126.506 78.7287 126.195 78.3198 125.79C77.9147 125.381 77.7121 124.897 77.7121 124.337C77.7121 123.785 77.9147 123.306 78.3198 122.901C78.7287 122.492 79.3088 122.179 80.0602 121.961C80.8152 121.744 81.7011 121.637 82.7176 121.641ZM82.7176 122.812C81.9994 122.808 81.3806 122.867 80.8613 122.989C80.3419 123.11 79.9423 123.287 79.6624 123.519C79.3861 123.748 79.2499 124.02 79.2535 124.337C79.2499 124.661 79.3861 124.941 79.6624 125.177C79.9386 125.409 80.3364 125.586 80.8557 125.707C81.3788 125.829 81.9994 125.891 82.7176 125.895C83.4322 125.891 84.0491 125.829 84.5685 125.707C85.0915 125.586 85.493 125.409 85.7729 125.177C86.0528 124.941 86.1928 124.661 86.1928 124.337C86.1928 124.02 86.0528 123.748 85.7729 123.519C85.493 123.287 85.0915 123.11 84.5685 122.989C84.0491 122.867 83.4322 122.808 82.7176 122.812ZM102.966 129.558V130.74H90.1535V129.558H102.966ZM97.2529 130.105V135.326H95.7944V130.105H97.2529ZM93.2198 121.895V123.718H99.8828V121.895H101.363V127.972H91.7502V121.895H93.2198ZM93.2198 126.779H99.8828V124.906H93.2198V126.779ZM115.678 121.326V135.354H114.208V121.326H115.678ZM114.424 126.503V127.713H111.418V126.503H114.424ZM105.727 130.818C107.123 130.818 108.278 130.792 109.192 130.74C110.109 130.689 111.033 130.582 111.965 130.42L112.125 131.63C111.149 131.785 110.182 131.891 109.225 131.95C108.267 132.009 107.101 132.041 105.727 132.044H104.645V130.818H105.727ZM111.186 122.569V123.785H106.136V131.227H104.645V122.569H111.186ZM110.6 126.503V127.685H105.761V126.503H110.6ZM133.329 121.326V128.53H131.865V121.326H133.329ZM133.351 129.199V132.702H125.628V134.475H124.186V131.575H131.876V130.37H124.141V129.199H133.351ZM133.81 134V135.193H124.186V134H133.81ZM126.545 122.773C126.541 123.639 126.375 124.451 126.047 125.21C125.72 125.969 125.256 126.63 124.655 127.193C124.055 127.753 123.35 128.171 122.539 128.448L121.782 127.276C122.497 127.037 123.119 126.689 123.65 126.232C124.184 125.772 124.593 125.243 124.876 124.646C125.164 124.046 125.307 123.422 125.307 122.773V121.696H126.545V122.773ZM126.826 122.773C126.823 123.4 126.963 123.996 127.246 124.564C127.53 125.127 127.935 125.624 128.462 126.055C128.989 126.486 129.607 126.812 130.318 127.033L129.583 128.188C128.769 127.923 128.062 127.525 127.462 126.994C126.861 126.464 126.399 125.838 126.075 125.116C125.751 124.39 125.589 123.61 125.589 122.773V121.696H126.826V122.773ZM138.61 129.724V131.21H145.191V129.724H146.677V135.149H137.146V129.724H138.61ZM138.61 133.961H145.191V132.359H138.61V133.961ZM148.329 127.619V128.834H135.566V127.619H148.329ZM142.467 122.072C142.467 122.856 142.213 123.578 141.704 124.238C141.196 124.897 140.511 125.444 139.649 125.878C138.791 126.313 137.842 126.604 136.804 126.751L136.251 125.586C137.154 125.464 137.981 125.232 138.732 124.89C139.487 124.547 140.084 124.129 140.522 123.635C140.964 123.142 141.185 122.621 141.185 122.072V121.475H142.467V122.072ZM142.71 122.072C142.71 122.602 142.931 123.118 143.373 123.619C143.815 124.116 144.413 124.541 145.168 124.895C145.923 125.245 146.743 125.475 147.627 125.586L147.091 126.751C146.049 126.604 145.097 126.311 144.235 125.873C143.377 125.431 142.695 124.882 142.191 124.227C141.686 123.567 141.435 122.849 141.439 122.072V121.475H142.71V122.072ZM160.516 121.326V135.326H159.035V121.326H160.516ZM162.555 127.011V128.243H160.046V127.011H162.555ZM153.615 122.823C153.612 124.105 153.516 125.278 153.328 126.343C153.14 127.407 152.814 128.438 152.35 129.436C151.886 130.431 151.251 131.359 150.444 132.221L149.256 131.387C150 130.613 150.59 129.79 151.024 128.917C151.459 128.044 151.766 127.131 151.947 126.177C152.131 125.219 152.225 124.158 152.229 122.994V122.823H153.615ZM152.781 122.823V124.05H149.765V122.823H152.781ZM157.477 122.823C157.474 124.175 157.392 125.433 157.234 126.597C157.076 127.757 156.774 128.899 156.328 130.022C155.886 131.145 155.262 132.186 154.455 133.144L153.262 132.32C154.002 131.459 154.578 130.527 154.991 129.525C155.407 128.523 155.695 127.494 155.853 126.436C156.011 125.376 156.092 124.221 156.096 122.972V122.823H157.477ZM156.693 122.823V124.05H154.068V122.823H156.693ZM168.084 125.459C168.081 126.468 167.906 127.453 167.559 128.414C167.213 129.376 166.734 130.228 166.123 130.972C165.512 131.716 164.821 132.276 164.051 132.652L163.184 131.481C163.876 131.16 164.502 130.678 165.062 130.033C165.622 129.389 166.062 128.665 166.383 127.862C166.703 127.059 166.865 126.258 166.869 125.459V123.376H168.084V125.459ZM168.372 125.459C168.372 126.236 168.528 127.004 168.841 127.762C169.158 128.517 169.596 129.193 170.156 129.79C170.72 130.383 171.355 130.831 172.062 131.133L171.25 132.304C170.455 131.95 169.747 131.425 169.129 130.729C168.51 130.029 168.029 129.225 167.687 128.315C167.348 127.401 167.18 126.449 167.184 125.459V123.376H168.372V125.459ZM171.565 122.735V123.961H163.676V122.735H171.565ZM174.819 121.326V135.326H173.327V121.326H174.819ZM188.857 122.685H190.587V130.122C190.587 130.91 190.399 131.611 190.023 132.227C189.651 132.842 189.124 133.322 188.443 133.669C187.762 134.015 186.975 134.188 186.084 134.188C185.193 134.188 184.406 134.015 183.725 133.669C183.043 133.322 182.517 132.842 182.145 132.227C181.773 131.611 181.587 130.91 181.587 130.122V122.685H183.305V129.983C183.305 130.492 183.417 130.947 183.642 131.348C183.87 131.75 184.194 132.063 184.614 132.287C185.034 132.508 185.524 132.619 186.084 132.619C186.647 132.619 187.139 132.508 187.559 132.287C187.979 132.063 188.299 131.75 188.52 131.348C188.745 130.947 188.857 130.492 188.857 129.983V122.685ZM194.088 122.685L196.779 127.099H196.867L199.569 122.685H201.563L198.038 128.343L201.585 134H199.58L196.867 129.646H196.779L194.066 134H192.066L195.679 128.343L192.082 122.685H194.088ZM207.259 122.155L203.612 135.702H202.126L205.773 122.155H207.259ZM215.889 122.685H217.618V130.122C217.618 130.91 217.43 131.611 217.054 132.227C216.682 132.842 216.156 133.322 215.474 133.669C214.793 134.015 214.007 134.188 213.115 134.188C212.224 134.188 211.437 134.015 210.756 133.669C210.075 133.322 209.548 132.842 209.176 132.227C208.804 131.611 208.618 130.91 208.618 130.122V122.685H210.336V129.983C210.336 130.492 210.448 130.947 210.673 131.348C210.902 131.75 211.226 132.063 211.646 132.287C212.065 132.508 212.555 132.619 213.115 132.619C213.679 132.619 214.17 132.508 214.59 132.287C215.01 132.063 215.331 131.75 215.552 131.348C215.776 130.947 215.889 130.492 215.889 129.983V122.685ZM221.633 122.685V134H219.915V122.685H221.633ZM231.571 126.691V127.895H229.008V126.691H231.571ZM235.339 121.326V135.326H233.914V121.326H235.339ZM232.494 121.597V134.635H231.08V121.597H232.494ZM226.466 122.448C227.078 122.448 227.612 122.648 228.069 123.05C228.529 123.451 228.884 124.022 229.135 124.762C229.389 125.503 229.518 126.372 229.522 127.37C229.518 128.372 229.389 129.247 229.135 129.994C228.884 130.742 228.529 131.317 228.069 131.718C227.612 132.12 227.078 132.319 226.466 132.315C225.862 132.319 225.332 132.12 224.875 131.718C224.422 131.317 224.072 130.742 223.825 129.994C223.579 129.247 223.455 128.372 223.455 127.37C223.455 126.372 223.579 125.503 223.825 124.762C224.072 124.022 224.422 123.451 224.875 123.05C225.332 122.648 225.862 122.448 226.466 122.448ZM226.466 123.84C226.135 123.84 225.846 123.98 225.599 124.26C225.352 124.54 225.162 124.945 225.03 125.475C224.897 126.002 224.833 126.634 224.836 127.37C224.833 128.107 224.897 128.74 225.03 129.271C225.162 129.801 225.352 130.206 225.599 130.486C225.846 130.766 226.135 130.904 226.466 130.901C226.809 130.904 227.105 130.768 227.356 130.492C227.61 130.215 227.803 129.81 227.936 129.276C228.072 128.742 228.14 128.107 228.14 127.37C228.14 126.634 228.072 126.002 227.936 125.475C227.803 124.945 227.61 124.54 227.356 124.26C227.105 123.98 226.809 123.84 226.466 123.84ZM247.952 122.387V123.613H241.764V122.387H247.952ZM245.256 125.536V129.05H243.786V125.536H245.256ZM248.825 123.177V123.287C248.818 123.983 248.792 124.639 248.748 125.254C248.707 125.866 248.615 126.549 248.471 127.304L247.002 127.177C247.153 126.407 247.25 125.735 247.295 125.16C247.339 124.586 247.365 123.961 247.372 123.287V123.177V122.387H248.825V123.177ZM252.107 121.326V131.845H250.598V121.326H252.107ZM254.035 125.785V127.039H251.46V125.785H254.035ZM252.554 133.823V135.039H243.046V133.823H252.554ZM244.527 130.895V134.21H243.046V130.895H244.527ZM240.919 128.514C242.617 128.506 244.19 128.475 245.637 128.42C247.085 128.361 248.442 128.241 249.709 128.061L249.797 129.144C248.497 129.372 247.127 129.525 245.687 129.602C244.247 129.676 242.703 129.715 241.057 129.718L240.919 128.514ZM265.863 121.337V131.818H264.377V121.337H265.863ZM267.891 125.84V127.077H265.416V125.84H267.891ZM263.211 122.972V124.166H254.88V122.972H263.211ZM259.051 124.84C259.718 124.84 260.305 124.95 260.813 125.171C261.325 125.389 261.723 125.698 262.007 126.099C262.294 126.501 262.44 126.965 262.443 127.492C262.44 128.011 262.294 128.47 262.007 128.867C261.723 129.262 261.325 129.567 260.813 129.785C260.305 129.998 259.718 130.105 259.051 130.105C258.377 130.105 257.782 129.998 257.266 129.785C256.751 129.567 256.351 129.262 256.068 128.867C255.784 128.47 255.642 128.011 255.642 127.492C255.642 126.965 255.784 126.501 256.068 126.099C256.351 125.698 256.751 125.389 257.266 125.171C257.782 124.95 258.377 124.84 259.051 124.84ZM259.051 125.989C258.657 125.989 258.309 126.05 258.007 126.171C257.705 126.289 257.473 126.462 257.311 126.691C257.149 126.919 257.069 127.186 257.073 127.492C257.069 127.79 257.149 128.05 257.311 128.271C257.473 128.492 257.705 128.661 258.007 128.779C258.309 128.897 258.657 128.954 259.051 128.95C259.445 128.954 259.791 128.897 260.09 128.779C260.388 128.661 260.62 128.492 260.786 128.271C260.951 128.05 261.036 127.79 261.04 127.492C261.036 127.186 260.951 126.919 260.786 126.691C260.62 126.462 260.388 126.289 260.09 126.171C259.791 126.05 259.445 125.989 259.051 125.989ZM259.791 121.331V123.575H258.316V121.331H259.791ZM266.46 133.823V135.039H256.99V133.823H266.46ZM258.465 130.983V134.337H256.99V130.983H258.465ZM285.41 132.354V133.58H272.597V132.354H285.41ZM279.702 128.862V132.68H278.233V128.862H279.702ZM283.874 122.448V129.116H274.056V122.448H283.874ZM275.509 123.646V127.939H282.421V123.646H275.509ZM299.205 128.348V129.536H286.426V128.348H299.205ZM297.757 125.724V126.934H288.017V125.724H297.757ZM297.63 121.906V123.094H289.497V126.149H288.017V121.906H297.63ZM297.857 133.807V135.028H288.033V133.807H297.857ZM289.497 130.912V134.138H288.033V130.912H289.497ZM315.828 121.337V130.751H314.348V121.337H315.828ZM314.613 125.193V126.425H311.475V125.193H314.613ZM311.398 122.425C311.394 123.637 311.145 124.729 310.652 125.702C310.162 126.674 309.442 127.516 308.491 128.227C307.545 128.934 306.385 129.505 305.011 129.939L304.364 128.762C305.547 128.405 306.545 127.947 307.359 127.387C308.177 126.823 308.793 126.175 309.21 125.442C309.626 124.709 309.836 123.904 309.84 123.028V122.425H311.398ZM310.906 122.425V123.624H305.077V122.425H310.906ZM311.751 130.177C311.751 131.042 311.519 131.829 311.055 132.536C310.595 133.239 309.963 133.825 309.16 134.293C308.357 134.761 307.447 135.09 306.431 135.282L305.84 134.099C306.716 133.956 307.506 133.696 308.21 133.32C308.917 132.941 309.471 132.479 309.873 131.934C310.274 131.389 310.477 130.803 310.48 130.177V129.586H311.751V130.177ZM311.956 130.177C311.952 130.796 312.149 131.374 312.547 131.912C312.944 132.449 313.495 132.906 314.199 133.282C314.902 133.657 315.692 133.921 316.569 134.072L315.956 135.254C314.946 135.07 314.042 134.744 313.243 134.276C312.447 133.812 311.821 133.23 311.364 132.53C310.908 131.827 310.681 131.042 310.685 130.177V129.586H311.956V130.177ZM324.358 121.558C325.412 121.558 326.31 121.65 327.054 121.834C327.802 122.018 328.371 122.291 328.762 122.652C329.156 123.009 329.353 123.446 329.353 123.961C329.353 124.484 329.156 124.928 328.762 125.293C328.371 125.654 327.802 125.928 327.054 126.116C326.31 126.3 325.412 126.394 324.358 126.398C323.305 126.394 322.402 126.3 321.651 126.116C320.903 125.928 320.332 125.654 319.938 125.293C319.548 124.928 319.353 124.484 319.353 123.961C319.353 123.449 319.55 123.013 319.944 122.652C320.338 122.291 320.909 122.018 321.657 121.834C322.404 121.65 323.305 121.558 324.358 121.558ZM324.358 122.663C323.622 122.659 322.994 122.711 322.474 122.818C321.955 122.921 321.563 123.07 321.297 123.265C321.032 123.457 320.902 123.689 320.905 123.961C320.902 124.249 321.032 124.492 321.297 124.691C321.563 124.886 321.951 125.033 322.463 125.133C322.975 125.232 323.607 125.282 324.358 125.282C325.117 125.282 325.752 125.232 326.264 125.133C326.78 125.033 327.17 124.886 327.436 124.691C327.701 124.492 327.833 124.249 327.833 123.961C327.833 123.689 327.699 123.457 327.43 123.265C327.165 123.07 326.771 122.921 326.248 122.818C325.728 122.715 325.099 122.663 324.358 122.663ZM330.751 127.249V128.436H317.988V127.249H330.751ZM329.132 129.514V132.79H320.988V134.354H319.535V131.724H327.673V130.624H319.507V129.514H329.132ZM329.535 134.044V135.193H319.535V134.044H329.535ZM72.9834 150.343C72.9834 151.525 72.7643 152.554 72.326 153.431C71.8877 154.308 71.2818 154.982 70.5083 155.453C69.7385 155.921 68.8637 156.155 67.884 156.155C66.9006 156.155 66.0221 155.919 65.2486 155.448C64.4788 154.976 63.8748 154.302 63.4365 153.425C63.0018 152.549 62.7845 151.521 62.7845 150.343C62.7845 149.16 63.0018 148.131 63.4365 147.254C63.8748 146.378 64.4788 145.705 65.2486 145.238C66.0221 144.766 66.9006 144.53 67.884 144.53C68.8637 144.53 69.7385 144.766 70.5083 145.238C71.2818 145.705 71.8877 146.378 72.326 147.254C72.7643 148.131 72.9834 149.16 72.9834 150.343ZM71.2762 150.343C71.2762 149.448 71.1308 148.681 70.8398 148.044C70.5488 147.407 70.1473 146.924 69.6354 146.597C69.1234 146.265 68.5396 146.099 67.884 146.099C67.2247 146.099 66.639 146.265 66.1271 146.597C65.6188 146.924 65.2192 147.407 64.9282 148.044C64.6372 148.681 64.4917 149.448 64.4917 150.343C64.4917 151.238 64.6372 152.004 64.9282 152.641C65.2192 153.278 65.6188 153.762 66.1271 154.094C66.639 154.422 67.2247 154.586 67.884 154.586C68.5396 154.586 69.1234 154.422 69.6354 154.094C70.1473 153.762 70.5488 153.278 70.8398 152.641C71.1308 152.004 71.2762 151.238 71.2762 150.343ZM84.0529 144.685V156H82.4728L76.738 147.735H76.633V156H74.9148V144.685H76.5115L82.2463 152.967H82.3513V144.685H84.0529ZM87.3631 151.552C86.6271 151.552 86.0191 150.944 86.0191 150.208C86.0191 149.472 86.6271 148.864 87.3631 148.864C88.0991 148.864 88.7071 149.472 88.7071 150.208C88.7071 150.944 88.0991 151.552 87.3631 151.552ZM100.499 150.343C100.499 151.525 100.28 152.554 99.8416 153.431C99.4033 154.308 98.7974 154.982 98.0239 155.453C97.2541 155.921 96.3793 156.155 95.3996 156.155C94.4162 156.155 93.5377 155.919 92.7642 155.448C91.9944 154.976 91.3904 154.302 90.9521 153.425C90.5175 152.549 90.3002 151.521 90.3002 150.343C90.3002 149.16 90.5175 148.131 90.9521 147.254C91.3904 146.378 91.9944 145.705 92.7642 145.238C93.5377 144.766 94.4162 144.53 95.3996 144.53C96.3793 144.53 97.2541 144.766 98.0239 145.238C98.7974 145.705 99.4033 146.378 99.8416 147.254C100.28 148.131 100.499 149.16 100.499 150.343ZM98.7919 150.343C98.7919 149.448 98.6464 148.681 98.3554 148.044C98.0644 147.407 97.663 146.924 97.151 146.597C96.639 146.265 96.0552 146.099 95.3996 146.099C94.7403 146.099 94.1547 146.265 93.6427 146.597C93.1344 146.924 92.7348 147.407 92.4438 148.044C92.1528 148.681 92.0073 149.448 92.0073 150.343C92.0073 151.238 92.1528 152.004 92.4438 152.641C92.7348 153.278 93.1344 153.762 93.6427 154.094C94.1547 154.422 94.7403 154.586 95.3996 154.586C96.0552 154.586 96.639 154.422 97.151 154.094C97.663 153.762 98.0644 153.278 98.3554 152.641C98.6464 152.004 98.7919 151.238 98.7919 150.343ZM102.43 156V144.685H109.458V146.166H104.149V149.597H108.95V151.072H104.149V156H102.43ZM111.368 156V144.685H118.396V146.166H113.086V149.597H117.887V151.072H113.086V156H111.368ZM120.305 156V144.685H122.024V154.519H127.145V156H120.305ZM130.617 144.685V156H128.899V144.685H130.617ZM142.053 144.685V156H140.473L134.738 147.735H134.633V156H132.915V144.685H134.511L140.246 152.967H140.351V144.685H142.053ZM144.352 156V144.685H151.457V146.166H146.071V149.597H151.087V151.072H146.071V154.519H151.518V156H144.352ZM159.296 144.166C160.272 144.169 161.154 144.335 161.942 144.663C162.73 144.987 163.349 145.446 163.799 146.039C164.248 146.628 164.473 147.308 164.473 148.077C164.473 148.851 164.248 149.536 163.799 150.133C163.349 150.726 162.73 151.184 161.942 151.508C161.154 151.829 160.272 151.987 159.296 151.983C158.323 151.987 157.443 151.829 156.655 151.508C155.87 151.184 155.253 150.726 154.804 150.133C154.358 149.536 154.136 148.851 154.136 148.077C154.136 147.308 154.358 146.628 154.804 146.039C155.253 145.446 155.87 144.987 156.655 144.663C157.443 144.335 158.323 144.169 159.296 144.166ZM159.296 145.376C158.585 145.372 157.944 145.483 157.373 145.707C156.806 145.932 156.362 146.25 156.042 146.663C155.721 147.076 155.561 147.547 155.561 148.077C155.561 148.611 155.721 149.083 156.042 149.492C156.362 149.897 156.806 150.212 157.373 150.436C157.94 150.657 158.581 150.768 159.296 150.768C160.01 150.768 160.649 150.657 161.213 150.436C161.776 150.212 162.218 149.897 162.539 149.492C162.863 149.083 163.025 148.611 163.025 148.077C163.025 147.543 162.863 147.072 162.539 146.663C162.218 146.25 161.775 145.932 161.207 145.707C160.644 145.483 160.007 145.372 159.296 145.376ZM165.738 154.287V155.514H152.926V154.287H165.738ZM179.566 154.414V155.646H166.754V154.414H179.566ZM173.859 151.525V154.945H172.389V151.525H173.859ZM177.997 144.32V148.691H169.787V151.37H168.312V147.497H176.533V145.53H168.284V144.32H177.997ZM178.323 150.735V151.95H168.312V150.735H178.323ZM195.488 143.326V151.503H194.002V143.326H195.488ZM197.516 146.641V147.873H195.074V146.641H197.516ZM186.488 144.127V146.155H190.157V144.127H191.626V150.691H185.024V144.127H186.488ZM186.488 149.508H190.157V147.326H186.488V149.508ZM195.588 152.232V153.414H188.052V156.796H186.565V152.232H195.588ZM195.853 155.945V157.133H186.565V155.945H195.853ZM202.062 144.376C202.758 144.376 203.377 144.578 203.918 144.983C204.464 145.385 204.889 145.958 205.195 146.702C205.5 147.442 205.655 148.304 205.659 149.287C205.655 150.278 205.5 151.145 205.195 151.89C204.889 152.63 204.464 153.203 203.918 153.608C203.377 154.009 202.758 154.21 202.062 154.21C201.37 154.21 200.751 154.009 200.206 153.608C199.664 153.203 199.241 152.63 198.935 151.89C198.633 151.145 198.484 150.278 198.487 149.287C198.484 148.304 198.633 147.442 198.935 146.702C199.241 145.958 199.664 145.385 200.206 144.983C200.751 144.578 201.37 144.376 202.062 144.376ZM202.062 145.702C201.642 145.705 201.268 145.853 200.941 146.144C200.613 146.435 200.357 146.851 200.173 147.392C199.992 147.934 199.902 148.565 199.902 149.287C199.902 150.017 199.992 150.652 200.173 151.193C200.357 151.735 200.611 152.151 200.935 152.442C201.263 152.733 201.638 152.878 202.062 152.878C202.497 152.878 202.876 152.733 203.2 152.442C203.528 152.151 203.782 151.737 203.963 151.199C204.143 150.657 204.233 150.02 204.233 149.287C204.233 148.562 204.143 147.93 203.963 147.392C203.782 146.851 203.528 146.435 203.2 146.144C202.872 145.853 202.493 145.705 202.062 145.702ZM209.222 143.326V157.326H207.736V143.326H209.222ZM211.465 148.812V150.066H208.891V148.812H211.465ZM224.956 154.365V155.591H212.144V154.365H224.956ZM219.249 151.105V154.713H217.78V151.105H219.249ZM215.089 144.282V146.696H221.962V144.282H223.437V151.492H213.603V144.282H215.089ZM215.089 150.287H221.962V147.89H215.089V150.287ZM234.155 148.249V149.481H231.525V148.249H234.155ZM229.961 147.215C229.958 148.221 229.829 149.192 229.575 150.127C229.324 151.059 228.954 151.895 228.464 152.635C227.974 153.376 227.389 153.954 226.707 154.37L225.779 153.265C226.42 152.882 226.967 152.37 227.42 151.729C227.877 151.088 228.221 150.379 228.453 149.602C228.685 148.825 228.801 148.029 228.801 147.215V144.602H229.961V147.215ZM230.238 147.149C230.238 147.926 230.343 148.683 230.553 149.42C230.766 150.153 231.083 150.827 231.503 151.442C231.926 152.057 232.442 152.549 233.05 152.917L232.216 154.066C231.538 153.657 230.965 153.092 230.497 152.37C230.03 151.648 229.68 150.84 229.448 149.945C229.219 149.05 229.107 148.118 229.111 147.149V144.602H230.238V147.149ZM238.011 143.326V157.326H236.586V143.326H238.011ZM235.105 143.597V156.635H233.707V143.597H235.105ZM244.325 150.508V154.613H242.867V150.508H244.325ZM249.541 150.508V154.613H248.044V150.508H249.541ZM252.613 154.354V155.58H239.801V154.354H252.613ZM246.171 144.138C247.169 144.142 248.06 144.297 248.845 144.602C249.629 144.904 250.243 145.333 250.685 145.89C251.127 146.442 251.348 147.079 251.348 147.801C251.348 148.523 251.127 149.16 250.685 149.713C250.243 150.262 249.629 150.687 248.845 150.989C248.06 151.287 247.169 151.436 246.171 151.436C245.173 151.436 244.283 151.287 243.502 150.989C242.721 150.687 242.11 150.262 241.668 149.713C241.23 149.16 241.011 148.523 241.011 147.801C241.011 147.076 241.23 146.436 241.668 145.884C242.11 145.331 242.721 144.904 243.502 144.602C244.287 144.297 245.176 144.142 246.171 144.138ZM246.171 145.337C245.445 145.333 244.801 145.431 244.237 145.63C243.677 145.829 243.239 146.116 242.922 146.492C242.609 146.867 242.453 147.304 242.453 147.801C242.453 148.291 242.609 148.724 242.922 149.099C243.239 149.471 243.677 149.761 244.237 149.967C244.801 150.173 245.445 150.276 246.171 150.276C246.896 150.276 247.541 150.173 248.104 149.967C248.668 149.761 249.108 149.471 249.425 149.099C249.742 148.724 249.9 148.291 249.9 147.801C249.9 147.304 249.742 146.867 249.425 146.492C249.108 146.116 248.668 145.829 248.104 145.63C247.541 145.431 246.896 145.333 246.171 145.337ZM255.22 156.105C255.017 156.105 254.829 156.055 254.656 155.956C254.487 155.853 254.352 155.718 254.253 155.552C254.154 155.383 254.106 155.199 254.109 155C254.106 154.801 254.154 154.617 254.253 154.448C254.352 154.278 254.487 154.144 254.656 154.044C254.829 153.945 255.017 153.895 255.22 153.895C255.415 153.895 255.596 153.945 255.761 154.044C255.931 154.144 256.067 154.278 256.17 154.448C256.273 154.617 256.325 154.801 256.325 155C256.325 155.199 256.273 155.383 256.17 155.552C256.071 155.718 255.936 155.853 255.767 155.956C255.597 156.055 255.415 156.105 255.22 156.105Z"
                    fill="white"
                  />
                  <path
                    d="M539.879 -26.0042C501.502 -10.3823 492.305 101.36 520.586 84.2577C550.495 66.1712 487.685 18.8596 442.003 77.5917"
                    stroke="#39FFB3"
                    stroke-width="12"
                  />
                  <path
                    d="M834.5 186.344C828.833 206.01 770.698 227.444 749.498 213.844C722.998 196.844 760.465 169.344 769.498 186.344C776.725 199.944 743.511 237.344 726 254.344"
                    stroke="#4CA9FF"
                    stroke-width="12"
                  />
                </g>
                <defs>
                  <radialGradient
                    id="paint0_radial_1998_144004"
                    cx="0"
                    cy="0"
                    r="1"
                    gradientUnits="userSpaceOnUse"
                    gradientTransform="translate(529.5 72.002) rotate(27.341) scale(297.201 339.06)"
                  >
                    <stop stop-color="#19ACFF" />
                    <stop offset="1" stop-color="#19ACFF" stop-opacity="0" />
                  </radialGradient>
                  <clipPath id="clip0_1998_144004">
                    <rect width="841" height="234" rx="6" fill="white" />
                  </clipPath>
                </defs>
              </svg>