<svg width="44" height="44" viewBox="0 0 44 44" fill="none" xmlns="http://www.w3.org/2000/svg">
<rect width="44" height="44" rx="22" fill="black"/>
<g clip-path="url(#clip0_372_25319)">
<path d="M30.1297 27.5861C29.825 28.2848 29.4644 28.928 29.0465 29.5193C28.477 30.3255 28.0106 30.8835 27.6512 31.1934C27.0941 31.702 26.4972 31.9625 25.858 31.9773C25.3991 31.9773 24.8458 31.8477 24.2016 31.5847C23.5553 31.323 22.9614 31.1934 22.4183 31.1934C21.8488 31.1934 21.2379 31.323 20.5846 31.5847C19.9302 31.8477 19.403 31.9847 19 31.9983C18.387 32.0242 17.7761 31.7563 17.1662 31.1934C16.777 30.8563 16.2901 30.2786 15.7069 29.4601C15.0811 28.586 14.5667 27.5725 14.1636 26.417C13.732 25.1689 13.5156 23.9603 13.5156 22.7902C13.5156 21.4498 13.8074 20.2938 14.3917 19.3251C14.851 18.547 15.4619 17.9332 16.2266 17.4826C16.9913 17.0319 17.8175 16.8023 18.7073 16.7876C19.1941 16.7876 19.8326 16.9371 20.626 17.231C21.4171 17.5258 21.9251 17.6753 22.1478 17.6753C22.3143 17.6753 22.8787 17.5005 23.8354 17.1519C24.74 16.8287 25.5036 16.6949 26.1291 16.7476C27.8241 16.8834 29.0975 17.5467 29.9444 18.7418C28.4285 19.6536 27.6786 20.9307 27.6935 22.5691C27.7072 23.8452 28.1735 24.9071 29.09 25.7503C29.5054 26.1417 29.9692 26.4441 30.4853 26.6589C30.3734 26.9812 30.2553 27.2898 30.1297 27.5861ZM26.2423 12.4001C26.2423 13.4003 25.8742 14.3343 25.1405 15.1987C24.2551 16.2263 23.1841 16.8201 22.0227 16.7264C22.0079 16.6064 21.9994 16.4801 21.9994 16.3474C21.9994 15.3872 22.4204 14.3596 23.1682 13.5193C23.5415 13.0939 24.0163 12.7402 24.5921 12.458C25.1666 12.18 25.71 12.0263 26.2211 12C26.2361 12.1337 26.2423 12.2674 26.2423 12.4001V12.4001Z" fill="white"/>
</g>
<defs>
<clipPath id="clip0_372_25319">
<rect width="16.9697" height="20" fill="white" transform="translate(13.5156 12)"/>
</clipPath>
</defs>
</svg>
