<svg width="282" height="170" viewBox="0 0 282 170" fill="none" xmlns="http://www.w3.org/2000/svg">
<path d="M0 6C0 2.68629 2.68629 0 6 0H276C279.314 0 282 2.68629 282 6V164C282 167.314 279.314 170 276 170H6C2.68629 170 0 167.314 0 164V6Z" fill="#E6E6E6"/>
<path d="M0 6C0 2.68629 2.68629 0 6 0H276C279.314 0 282 2.68629 282 6V164C282 167.314 279.314 170 276 170H6C2.68629 170 0 167.314 0 164V6Z" fill="black" fill-opacity="0.3"/>
<path fill-rule="evenodd" clip-rule="evenodd" d="M141 109C154.255 109 165 98.2548 165 85C165 71.7452 154.255 61 141 61C127.745 61 117 71.7452 117 85C117 98.2548 127.745 109 141 109ZM152.084 79.0616C152.671 78.4763 152.672 77.5266 152.086 76.9403C151.501 76.354 150.551 76.3531 149.965 76.9384L137.001 89.8796L131.061 83.9393C130.475 83.3536 129.525 83.3536 128.939 83.9393C128.354 84.5251 128.354 85.4749 128.939 86.0607L135.939 93.0607C136.525 93.6461 137.474 93.6465 138.06 93.0616L152.084 79.0616Z" fill="white" fill-opacity="0.7"/>
</svg>
