<svg width="13" height="12" viewBox="0 0 13 12" fill="none" xmlns="http://www.w3.org/2000/svg">
<path fill-rule="evenodd" clip-rule="evenodd" d="M3.14645 2.64645C3.34171 2.45118 3.65829 2.45118 3.85355 2.64645L6.5 5.29289L9.14645 2.64645C9.34171 2.45118 9.65829 2.45118 9.85355 2.64645C10.0488 2.84171 10.0488 3.15829 9.85355 3.35355L7.20711 6L9.85355 8.64645C10.0488 8.84171 10.0488 9.15829 9.85355 9.35355C9.65829 9.54882 9.34171 9.54882 9.14645 9.35355L6.5 6.70711L3.85355 9.35355C3.65829 9.54882 3.34171 9.54882 3.14645 9.35355C2.95118 9.15829 2.95118 8.84171 3.14645 8.64645L5.79289 6L3.14645 3.35355C2.95118 3.15829 2.95118 2.84171 3.14645 2.64645Z" fill="#9D9D9D"/>
</svg>
