<svg width="24" height="24" viewBox="0 0 24 24" fill="none" xmlns="http://www.w3.org/2000/svg">
<path d="M7.72219 19H18.5881C18.8155 19 19 18.8187 19 18.5949L18.9998 14.0481M8.87365 18.7485L18.7215 14.2301C18.9276 14.1355 19.0167 13.8944 18.9206 13.6916L16.9677 9.57113C16.8716 9.36834 16.6265 9.28028 16.4204 9.37485L12.0235 11.3924M10.3525 17.0139C9.96334 18.4428 8.47067 19.2908 7.01847 18.9079C5.56628 18.525 4.7043 17.0565 5.09342 15.6276L7.90571 5.30043C7.96457 5.0843 8.19015 4.95599 8.40981 5.0139L12.8734 6.19051C13.093 6.24842 13.2234 6.47052 13.1646 6.68665L10.3525 17.0139ZM7.72219 16.3981H7.72374L7.72371 16.3997L7.72219 16.3996V16.3981Z" stroke="#666666" stroke-width="1.5" stroke-linecap="round" stroke-linejoin="round"/>
</svg>
