<svg width="28" height="28" viewBox="0 0 28 28" fill="none" xmlns="http://www.w3.org/2000/svg">
<path d="M18.6667 9.33464H23.3333C23.9777 9.33464 24.5 9.85697 24.5 10.5013V23.3346L20.6115 20.1041C20.402 19.9301 20.1376 19.8346 19.8652 19.8346H10.5C9.85567 19.8346 9.33333 19.3123 9.33333 18.668V15.168H8.13477C7.86245 15.168 7.59797 15.2632 7.38851 15.4372L3.5 18.6683V5.83464C3.5 5.1903 4.02233 4.66797 4.66667 4.66797H17.5C18.1443 4.66797 18.6667 5.1903 18.6667 5.83464V9.33464Z" fill="#196AFF"/>
<path d="M18.6667 9.33464H23.3333C23.9777 9.33464 24.5 9.85697 24.5 10.5013V23.3346L20.6115 20.1041C20.402 19.9301 20.1376 19.8346 19.8652 19.8346H10.5C9.85567 19.8346 9.33333 19.3123 9.33333 18.668V15.168M18.6667 9.33464V5.83464C18.6667 5.1903 18.1443 4.66797 17.5 4.66797H4.66667C4.02233 4.66797 3.5 5.1903 3.5 5.83464V18.6683L7.38851 15.4372C7.59797 15.2632 7.86245 15.168 8.13477 15.168H9.33333M18.6667 9.33464V14.0013C18.6667 14.6456 18.1443 15.168 17.5 15.168H9.33333" stroke="#196AFF" stroke-width="1.5" stroke-linecap="round" stroke-linejoin="round"/>
</svg>
