<svg width="45" height="45" viewBox="0 0 45 45" fill="none" xmlns="http://www.w3.org/2000/svg">
<circle cx="22.5" cy="22.5" r="22.5" fill="white"/>
<path d="M25 21V28M21 21V28M17 17V28.8C17 29.9201 17 30.4798 17.218 30.9076C17.4097 31.2839 17.7155 31.5905 18.0918 31.7822C18.5192 32 19.079 32 20.1969 32H25.8031C26.921 32 27.48 32 27.9074 31.7822C28.2837 31.5905 28.5905 31.2839 28.7822 30.9076C29 30.4802 29 29.921 29 28.8031V17M17 17H19M17 17H15M19 17H27M19 17C19 16.0681 19 15.6024 19.1522 15.2349C19.3552 14.7448 19.7443 14.3552 20.2344 14.1522C20.6019 14 21.0681 14 22 14H24C24.9319 14 25.3978 14 25.7654 14.1522C26.2554 14.3552 26.6447 14.7448 26.8477 15.2349C26.9999 15.6024 27 16.0681 27 17M27 17H29M29 17H31" stroke="#333333" stroke-width="2" stroke-linecap="round" stroke-linejoin="round"/>
</svg>
