<svg width="60" height="60" viewBox="0 0 60 60" fill="none" xmlns="http://www.w3.org/2000/svg">
  <path d="M60 9.375C60 4.19734 55.8026 0 50.625 0H9.375C4.19734 0 0 4.19734 0 9.375V50.625C0 55.8026 4.19734 60 9.375 60H50.625C55.8026 60 60 55.8026 60 50.625V9.375Z" fill="black"/>
  <path d="M29.9688 30.0001C29.9688 27.2388 32.2073 25 34.9686 25C37.7301 25 39.9687 27.2388 39.9687 30.0001C39.9687 32.7616 37.7301 35.0001 34.9686 35.0001C32.2073 35.0001 29.9688 32.7616 29.9688 30.0001Z" fill="#1ABCFE"/>
  <path d="M19.9648 39.9979C19.9648 37.2366 22.2034 34.998 24.9649 34.998H29.965V39.9979C29.965 42.7594 27.7264 44.998 24.9649 44.998C22.2034 44.998 19.9648 42.7594 19.9648 39.9979Z" fill="#0ACF83"/>
  <path d="M29.9688 15V24.9999H34.9686C37.7301 24.9999 39.9687 22.7614 39.9687 20.0001C39.9687 17.2386 37.7301 15 34.9686 15H29.9688Z" fill="#FF7262"/>
  <path d="M19.9648 20.0001C19.9648 22.7614 22.2034 24.9999 24.9649 24.9999H29.965V15H24.9649C22.2034 15 19.9648 17.2386 19.9648 20.0001Z" fill="#F24E1E"/>
  <path d="M19.9648 30.0001C19.9648 32.7616 22.2034 35.0001 24.9649 35.0001H29.965V25H24.9649C22.2034 25 19.9648 27.2388 19.9648 30.0001Z" fill="#A259FF"/>
</svg>
