<svg width="24" height="24" viewBox="0 0 24 24" fill="none" xmlns="http://www.w3.org/2000/svg">
<path d="M5.11478 10.3015C4.89164 10.1006 5.01285 9.73734 5.31467 9.70249L9.59131 9.20855C9.71432 9.19435 9.82116 9.11913 9.87305 9.0096L11.6769 5.20159C11.8042 4.93284 12.1965 4.93279 12.3238 5.20153L14.1277 9.00952C14.1795 9.11905 14.2857 9.19447 14.4087 9.20867L18.6856 9.70249C18.9874 9.73734 19.1083 10.1007 18.8851 10.3016L15.7236 13.1491C15.6327 13.231 15.5922 13.3529 15.6164 13.4712L16.4554 17.5843C16.5146 17.8746 16.1974 18.0995 15.9322 17.955L12.1743 15.9062C12.0662 15.8472 11.9349 15.8475 11.8268 15.9064L8.06852 17.9545C7.80331 18.099 7.48546 17.8746 7.5447 17.5843L8.38388 13.4714C8.40802 13.3531 8.36763 13.231 8.27669 13.1491L5.11478 10.3015Z" stroke="#666666" stroke-width="1.5" stroke-linecap="round" stroke-linejoin="round"/>
</svg>
