<svg width="16" height="16" viewBox="0 0 16 16" fill="none" xmlns="http://www.w3.org/2000/svg">
<path d="M9.33333 9.9987H14M2 9.9987H3.33333M3.33333 9.9987C3.33333 10.9192 4.07953 11.6654 5 11.6654C5.92047 11.6654 6.66667 10.9192 6.66667 9.9987C6.66667 9.07822 5.92047 8.33203 5 8.33203C4.07953 8.33203 3.33333 9.07822 3.33333 9.9987ZM13.3333 5.9987H14M2 5.9987H6.66667M11 7.66536C10.0795 7.66536 9.33333 6.91917 9.33333 5.9987C9.33333 5.07822 10.0795 4.33203 11 4.33203C11.9205 4.33203 12.6667 5.07822 12.6667 5.9987C12.6667 6.91917 11.9205 7.66536 11 7.66536Z" stroke="#4C8BFF" stroke-width="1.2" stroke-linecap="round" stroke-linejoin="round"/>
</svg>
