<svg width="44" height="44" viewBox="0 0 44 44" fill="none" xmlns="http://www.w3.org/2000/svg">
<rect width="43.9999" height="44" rx="22" fill="#F8F9FD"/>
<g clip-path="url(#clip0_372_25315)">
<path d="M31.7133 22.2222C31.7133 21.4023 31.6472 20.804 31.504 20.1836H22.1973V23.8841H27.6601C27.55 24.8037 26.9553 26.1886 25.6336 27.1192L25.6151 27.2431L28.5577 29.5363L28.7616 29.5567C30.6339 27.8173 31.7133 25.2579 31.7133 22.2222Z" fill="#4285F4"/>
<path d="M22.197 31.972C24.8734 31.972 27.1202 31.0856 28.7613 29.5567L25.6333 27.1191C24.7963 27.7063 23.6729 28.1163 22.197 28.1163C19.5757 28.1163 17.3509 26.3769 16.5578 23.9727L16.4416 23.9826L13.3818 26.3647L13.3418 26.4766C14.9718 29.7339 18.3201 31.972 22.197 31.972Z" fill="#34A853"/>
<path d="M16.5585 23.9714C16.3493 23.3509 16.2282 22.6861 16.2282 21.9992C16.2282 21.3123 16.3493 20.6475 16.5475 20.0271L16.542 19.8949L13.4438 17.4746L13.3425 17.5231C12.6706 18.8748 12.2852 20.3927 12.2852 21.9992C12.2852 23.6057 12.6706 25.1235 13.3425 26.4752L16.5585 23.9714Z" fill="#FBBC05"/>
<path d="M22.197 15.8849C24.0583 15.8849 25.3139 16.6937 26.0298 17.3696L28.8274 14.6219C27.1093 13.0154 24.8734 12.0293 22.197 12.0293C18.3201 12.0293 14.9718 14.2673 13.3418 17.5246L16.5468 20.0286C17.3509 17.6244 19.5757 15.8849 22.197 15.8849Z" fill="#EB4335"/>
</g>
<defs>
<clipPath id="clip0_372_25315">
<rect width="19.4286" height="20" fill="white" transform="translate(12.2852 12)"/>
</clipPath>
</defs>
</svg>
