<svg width="16" height="16" viewBox="0 0 16 16" fill="none" xmlns="http://www.w3.org/2000/svg">
<path fill-rule="evenodd" clip-rule="evenodd" d="M15.68 8.18177C15.68 7.6145 15.6291 7.06905 15.5345 6.54541H8V9.63996H12.3055C12.12 10.64 11.5564 11.4872 10.7091 12.0545V14.0618H13.2945C14.8073 12.669 15.68 10.6181 15.68 8.18177Z" fill="#4285F4"/>
<path fill-rule="evenodd" clip-rule="evenodd" d="M7.9987 15.9995C10.1587 15.9995 11.9696 15.2832 13.2932 14.0613L10.7078 12.0541C9.99143 12.5341 9.07506 12.8177 7.9987 12.8177C5.91506 12.8177 4.15143 11.4104 3.52234 9.51953H0.849609V11.5923C2.16597 14.2068 4.87143 15.9995 7.9987 15.9995Z" fill="#34A853"/>
<path fill-rule="evenodd" clip-rule="evenodd" d="M3.52364 9.52044C3.36364 9.04044 3.27273 8.52771 3.27273 8.00044C3.27273 7.47317 3.36364 6.96044 3.52364 6.48044V4.40771H0.850909C0.309091 5.48771 0 6.70953 0 8.00044C0 9.29135 0.309091 10.5132 0.850909 11.5932L3.52364 9.52044Z" fill="#FBBC05"/>
<path fill-rule="evenodd" clip-rule="evenodd" d="M7.9987 3.18182C9.17325 3.18182 10.2278 3.58545 11.0569 4.37818L13.3514 2.08364C11.966 0.792727 10.1551 0 7.9987 0C4.87143 0 2.16597 1.79273 0.849609 4.40727L3.52234 6.48C4.15143 4.58909 5.91506 3.18182 7.9987 3.18182Z" fill="#EA4335"/>
</svg>
