<svg width="60" height="60" viewBox="0 0 60 60" fill="none" xmlns="http://www.w3.org/2000/svg">
<path d="M0 21.7142C0 14.1136 0 10.3132 1.47919 7.41013C2.78034 4.85651 4.85651 2.78034 7.41013 1.47919C10.3132 0 14.1136 0 21.7142 0H38.2858C45.8865 0 49.6869 0 52.5898 1.47919C55.1434 2.78034 57.2196 4.85651 58.5208 7.41013C60 10.3132 60 14.1136 60 21.7142V38.2858C60 45.8865 60 49.6869 58.5208 52.5898C57.2196 55.1434 55.1434 57.2196 52.5898 58.5208C49.6869 60 45.8865 60 38.2858 60H21.7142C14.1136 60 10.3132 60 7.41013 58.5208C4.85651 57.2196 2.78034 55.1434 1.47919 52.5898C0 49.6869 0 45.8865 0 38.2858V21.7142Z" fill="#330000"/>
<path d="M29.082 37.7061H19.7843L17.8926 43.7333C17.8401 43.9572 17.634 44.1158 17.4096 44.1046H12.7004C12.4318 44.1046 12.3379 43.9533 12.4186 43.6506L20.4686 19.8721C20.5491 19.6244 20.6297 19.3424 20.7101 19.0259C20.8155 18.475 20.8693 17.9153 20.8712 17.354C20.8481 17.1882 20.9938 17.0417 21.1528 17.0649H27.5526C27.7401 17.0649 27.8473 17.1338 27.8745 17.2713L37.0114 43.6919C37.0918 43.9673 37.0114 44.1048 36.7699 44.1046H31.5373C31.3538 44.1256 31.1786 43.9998 31.1348 43.8158L29.082 37.7061ZM21.2333 32.5045H27.5929C26.5481 28.934 25.3688 25.4106 24.4131 21.8125C23.382 25.4168 22.257 29.0065 21.2333 32.5045Z" fill="#FF9A00"/>
<path d="M42.4485 21.441C42.038 21.4579 41.6287 21.3857 41.247 21.2293C40.8656 21.0729 40.5206 20.8354 40.2347 20.5329C39.9497 20.217 39.7282 19.8467 39.5831 19.4428C39.438 19.0391 39.3722 18.6099 39.3894 18.1798C39.3748 17.754 39.4479 17.3299 39.6039 16.9351C39.7601 16.5403 39.9956 16.1837 40.2952 15.8886C40.5917 15.5966 40.9419 15.3677 41.3255 15.2154C41.7088 15.063 42.1179 14.9902 42.5289 15.0011C43.4951 15.0011 44.253 15.2969 44.8031 15.8886C45.0808 16.1961 45.2966 16.5567 45.4382 16.9499C45.5797 17.343 45.6444 17.7611 45.6281 18.1798C45.645 18.6114 45.5771 19.0423 45.4284 19.4464C45.2799 19.8506 45.0534 20.22 44.7628 20.5329C44.4592 20.8399 44.0966 21.0791 43.6985 21.2355C43.3001 21.3917 42.8745 21.4618 42.4485 21.441ZM39.6712 43.692V23.9593C39.6712 23.7116 39.7781 23.5877 39.9932 23.5877H44.9441C45.1584 23.5877 45.2657 23.7116 45.266 23.9593V43.692C45.266 43.9676 45.1586 44.1051 44.9441 44.1049H40.0335C39.792 44.1049 39.6712 43.9674 39.6712 43.692Z" fill="#FF9A00"/>
</svg>
