<svg width="32" height="32" viewBox="0 0 32 32" fill="none" xmlns="http://www.w3.org/2000/svg">
<circle cx="16" cy="16" r="16" fill="#F5F8FF"/>
<path d="M13.4833 12.5714H11.743C10.7829 12.5714 10.3025 12.5714 9.93583 12.7375C9.61326 12.8836 9.3512 13.1166 9.18685 13.4033C9 13.7292 9 14.1563 9 15.0097V19.2763C9 20.1298 9 20.5562 9.18685 20.8822C9.3512 21.1689 9.61326 21.4023 9.93583 21.5484C10.3022 21.7143 10.782 21.7143 11.7402 21.7143H19.9741C20.9323 21.7143 21.4114 21.7143 21.7778 21.5484C22.1003 21.4023 22.3633 21.1689 22.5276 20.8822C22.7143 20.5566 22.7143 20.1307 22.7143 19.2789V15.0072C22.7143 14.1554 22.7143 13.7289 22.5276 13.4033C22.3633 13.1166 22.1003 12.8836 21.7778 12.7375C21.4111 12.5714 20.9317 12.5714 19.9716 12.5714H18.2305M13.4833 12.5714H18.2305M13.4833 12.5714C13.374 12.5714 13.2857 12.4927 13.2857 12.3956V10.2857C13.2857 9.02335 14.437 8 15.8571 8C17.2773 8 18.4286 9.02335 18.4286 10.2857V12.3956C18.4286 12.4927 18.3398 12.5714 18.2305 12.5714" stroke="#0059FF" stroke-width="2" stroke-linecap="round" stroke-linejoin="round"/>
</svg>
