<svg width="61" height="16" viewBox="0 0 61 16" fill="none" xmlns="http://www.w3.org/2000/svg">
<g clip-path="url(#clip0_666_29644)">
<path opacity="0.5" d="M5.31814 0.0429688H15.7223V10.6522H5.27559C2.36512 10.6522 0 8.28405 0 5.36985C0 2.43048 2.38253 0.0429688 5.31814 0.0429688Z" fill="#030303"/>
<path opacity="0.5" d="M10.4471 15.957L0.000309378 15.957L0.000309378 5.34781L10.4045 5.34781C13.3401 5.34974 15.7227 7.73532 15.7227 10.6747C15.7227 13.5908 13.3575 15.957 10.4471 15.957Z" fill="#030303"/>
<path opacity="0.5" d="M24.1251 0.0429688H18.0566V15.9558H24.1251V0.0429688Z" fill="#030303"/>
<path opacity="0.5" d="M33.7751 0.0429688H18.0566V4.70956H33.7751V0.0429688Z" fill="#030303"/>
<path opacity="0.5" d="M30.1955 6.48828H18.0566V11.0774H30.1955V6.48828Z" fill="#030303"/>
<path opacity="0.5" d="M31.3691 15.9558H39.2709V0.0429688L31.3691 15.9558Z" fill="#030303"/>
<path opacity="0.72" d="M39.2715 15.9558H47.1752L39.2715 0.0429688V15.9558Z" fill="#030303"/>
<path opacity="0.5" d="M49.6289 13.7599C51.0658 15.1443 53.0132 15.9983 55.1636 15.9983C57.4688 15.9983 59.54 15.0146 60.9981 13.45L55.4672 7.91211L49.627 13.7599H49.6289Z" fill="#030303"/>
<path opacity="0.5" d="M55.1636 0C53.0576 0 51.1469 0.822946 49.7197 2.15709L55.4691 7.91383L60.9188 2.45722C59.4645 0.944935 57.4262 0 55.1655 0L55.1636 0Z" fill="#030303"/>
<path opacity="0.72" d="M49.7198 2.15819C48.1572 3.61819 47.1748 5.69201 47.1748 8.00013C47.1748 10.3083 48.1185 12.3066 49.6289 13.7608L55.4692 7.913L49.7198 2.15625V2.15819Z" fill="#030303"/>
</g>
<defs>
<clipPath id="clip0_666_29644">
<rect width="61" height="16" fill="white"/>
</clipPath>
</defs>
</svg>
