<svg width="61" height="16" viewBox="0 0 61 16" fill="none" xmlns="http://www.w3.org/2000/svg">
<g clip-path="url(#clip0_245_63931)">
<path opacity="0.5" d="M5.31814 0.0419922H15.7223V10.6512H5.27559C2.36512 10.6512 0 8.28307 0 5.36887C0 2.4295 2.38253 0.0419922 5.31814 0.0419922Z" fill="#0059FF"/>
<path opacity="0.5" d="M10.4471 15.9551L0.000309378 15.9551L0.000309378 5.34585L10.4045 5.34585C13.3401 5.34779 15.7227 7.73337 15.7227 10.6727C15.7227 13.5889 13.3575 15.9551 10.4471 15.9551Z" fill="#0059FF"/>
<path opacity="0.5" d="M24.1251 0.0419922H18.0566V15.9549H24.1251V0.0419922Z" fill="#0059FF"/>
<path opacity="0.5" d="M33.7751 0.0419922H18.0566V4.70858H33.7751V0.0419922Z" fill="#0059FF"/>
<path opacity="0.5" d="M30.1955 6.48633H18.0566V11.0755H30.1955V6.48633Z" fill="#0059FF"/>
<path opacity="0.5" d="M31.3696 15.9549H39.2714V0.0419922L31.3696 15.9549Z" fill="#0059FF"/>
<path opacity="0.72" d="M39.2715 15.9549H47.1752L39.2715 0.0419922V15.9549Z" fill="#0059FF"/>
<path opacity="0.5" d="M49.6294 13.7599C51.0662 15.1443 53.0136 15.9983 55.1641 15.9983C57.4693 15.9983 59.5405 15.0146 60.9986 13.45L55.4677 7.91211L49.6274 13.7599H49.6294Z" fill="#0059FF"/>
<path opacity="0.5" d="M55.1641 0C53.0581 0 51.1474 0.822946 49.7202 2.15709L55.4696 7.91383L60.9192 2.45722C59.465 0.944935 57.4267 0 55.166 0L55.1641 0Z" fill="#0059FF"/>
<path opacity="0.72" d="M49.7203 2.15721C48.1577 3.61721 47.1753 5.69104 47.1753 7.99916C47.1753 10.3073 48.119 12.3056 49.6294 13.7598L55.4697 7.91202L49.7203 2.15527V2.15721Z" fill="#0059FF"/>
</g>
<defs>
<clipPath id="clip0_245_63931">
<rect width="61" height="16" fill="white"/>
</clipPath>
</defs>
</svg>
