<svg width="122" height="32" viewBox="0 0 122 32" fill="none" xmlns="http://www.w3.org/2000/svg">
<g clip-path="url(#clip0_265_25724)">
<path opacity="0.5" d="M10.6363 0.0849609H31.4447V21.3034H10.5512C4.73024 21.3034 0 16.5671 0 10.7387C0 4.85998 4.76505 0.0849609 10.6363 0.0849609Z" fill="#0059FF"/>
<path opacity="0.5" d="M20.8936 31.9111L0.0001297 31.9111L0.0001297 10.6927L20.8086 10.6927C26.6798 10.6966 31.4448 15.4677 31.4448 21.3464C31.4448 27.1787 26.7146 31.9111 20.8936 31.9111Z" fill="#0059FF"/>
<path opacity="0.5" d="M48.2502 0.0849609H36.1133V31.9107H48.2502V0.0849609Z" fill="#0059FF"/>
<path opacity="0.5" d="M67.5502 0.0849609H36.1133V9.41813H67.5502V0.0849609Z" fill="#0059FF"/>
<path opacity="0.5" d="M60.3911 12.9736H36.1133V22.1519H60.3911V12.9736Z" fill="#0059FF"/>
<path opacity="0.5" d="M62.7388 31.9107H78.5423V0.0849609L62.7388 31.9107Z" fill="#0059FF"/>
<path opacity="0.72" d="M78.542 31.9107H94.3494L78.542 0.0849609V31.9107Z" fill="#0059FF"/>
<path opacity="0.5" d="M99.2583 27.5197C102.132 30.2887 106.027 31.9966 110.328 31.9966C114.938 31.9966 119.08 30.0292 121.997 26.9001L110.935 15.8242L99.2544 27.5197H99.2583Z" fill="#0059FF"/>
<path opacity="0.5" d="M110.328 0C106.116 0 102.294 1.64589 99.4399 4.31417L110.939 15.8277L121.838 4.91444C118.929 1.88987 114.853 0 110.331 0L110.328 0Z" fill="#0059FF"/>
<path opacity="0.72" d="M99.44 4.31442C96.3149 7.23442 94.3501 11.3821 94.3501 15.9983C94.3501 20.6146 96.2376 24.6112 99.2583 27.5196L110.939 15.824L99.44 4.31055V4.31442Z" fill="#0059FF"/>
</g>
<defs>
<clipPath id="clip0_265_25724">
<rect width="122" height="32" fill="white"/>
</clipPath>
</defs>
</svg>
