<svg width="80" height="15" viewBox="0 0 80 15" fill="none" xmlns="http://www.w3.org/2000/svg">
<g clip-path="url(#clip0_245_61321)">
<path d="M78.7583 6.67951H78.0187C77.7058 4.34005 75.8248 2.49198 73.4744 2.22848V1.57685C73.4744 1.25994 73.2184 1 72.8984 1C72.5784 1 72.3224 1.25638 72.3224 1.57685V2.22848C69.972 2.49198 68.091 4.34005 67.7781 6.67951H67.1131C66.7967 6.67951 66.5371 6.93589 66.5371 7.25637C66.5371 7.57684 66.7931 7.83322 67.1131 7.83322H67.7532C67.9701 10.2795 69.8938 12.2415 72.3224 12.5121V13.1816C72.3224 13.4985 72.5784 13.7584 72.8984 13.7584C73.2184 13.7584 73.4744 13.5021 73.4744 13.1816V12.5121C75.903 12.2415 77.8267 10.2795 78.0436 7.83322H78.7583C79.0748 7.83322 79.3344 7.57684 79.3344 7.25637C79.3344 6.93589 79.0783 6.67951 78.7583 6.67951ZM73.4744 11.3513C73.286 11.3798 73.094 11.394 72.8984 11.394C72.7028 11.394 72.5108 11.3798 72.3224 11.3513C70.5302 11.0914 69.1151 9.64212 68.9088 7.83322C68.891 7.68011 68.8804 7.52699 68.8804 7.37388C68.8804 7.13886 68.9017 6.90741 68.9408 6.68307C69.2359 4.97744 70.6049 3.63857 72.3224 3.39287C72.5108 3.36439 72.7028 3.35014 72.8984 3.35014C73.094 3.35014 73.286 3.36439 73.4744 3.39287C75.1919 3.64213 76.5608 4.981 76.856 6.68307C76.8951 6.90741 76.9164 7.13886 76.9164 7.37388C76.9164 7.53055 76.9058 7.68367 76.888 7.83322C76.6817 9.64568 75.2665 11.0949 73.4744 11.3513Z" fill="#CCCCCC"/>
<path d="M72.8986 9.67676C74.1672 9.67676 75.1956 8.64688 75.1956 7.37646C75.1956 6.10605 74.1672 5.07617 72.8986 5.07617C71.63 5.07617 70.6016 6.10605 70.6016 7.37646C70.6016 8.64688 71.63 9.67676 72.8986 9.67676Z" fill="#CCCCCC"/>
<path d="M62.8911 0.398438V10.6271H59.7931V3.133H49.5298V0.398438H62.8911ZM63.7045 11.5617V14.3135H48.751V11.5617H63.7045Z" fill="#CCCCCC"/>
<path d="M41.4652 11.6482H47.4535V14.3135H32.5V11.6482H38.4883V9.98671H33.3308V3.96375H43.7498V2.95992H33.2961V0.398438H46.6401V6.40409H36.2211V7.42522H46.8132V9.98671H41.4652V11.6482Z" fill="#CCCCCC"/>
<path d="M28.3145 0.0507812H30.9625V9.2929H28.3145V5.69298H27.2588V9.13714H24.6454V0.120011H27.2588V3.04495H28.3145V0.0507812ZM24.1261 8.32369C23.2435 8.70445 21.8416 8.84291 20.5435 8.84291H16.1475V6.50642H16.9609V2.56035H16.2513V0.223856H23.8319V2.56035H23.1223V6.29873C23.5031 6.2295 23.8492 6.12566 24.1261 6.02181V8.32369ZM19.5051 2.56035V6.50642H20.5781V2.56035H19.5051ZM17.2897 12.2525V9.81212H30.9625V15.0043H28.0722V12.2525H17.2897Z" fill="#CCCCCC"/>
<path d="M7.37293 5.67681C5.6595 7.99599 3.11532 9.46711 0.294225 9.48442V6.71525C3.23647 6.69794 5.97103 3.96338 6.50756 0L9.48442 0.467298C9.34596 1.50574 9.06905 2.47495 8.67098 3.39224L14.9709 7.18254L13.4305 9.55365L7.37293 5.67681ZM0 14.3132V11.5786H14.9535V14.3132H0Z" fill="#CCCCCC"/>
</g>
<defs>
<clipPath id="clip0_245_61321">
<rect width="79.334" height="15" fill="white"/>
</clipPath>
</defs>
</svg>
