<svg width="40" height="21" viewBox="0 0 40 21" fill="none" xmlns="http://www.w3.org/2000/svg">
<g clip-path="url(#clip0_245_61321)">
<path d="M-0.000488281 9.282V7.39047H9.76276V9.282H-0.000488281ZM0.094959 4.7544C0.685225 4.47017 1.21521 4.15575 1.6824 3.80863C2.14959 3.46152 2.56152 3.08673 2.91568 2.68679C3.2623 2.29188 3.52855 1.87182 3.71944 1.42158C3.90783 0.971334 4.01332 0.498451 4.03844 0.00292969H6.24629C6.23122 0.334954 6.19605 0.651886 6.14079 0.961272C6.08553 1.26814 6.00767 1.56495 5.90468 1.84919C6.25884 2.05293 6.60045 2.2617 6.932 2.47047C7.26355 2.67925 7.5725 2.89305 7.86387 3.1144C8.1477 3.35084 8.44157 3.60741 8.74801 3.88409C9.05445 4.16078 9.37093 4.46262 9.69243 4.79464L8.2984 6.3793C8.02211 6.07243 7.74079 5.78065 7.44942 5.50397C7.15806 5.22728 6.85916 4.96317 6.55272 4.71164C6.26889 4.51544 5.9926 4.32428 5.72133 4.14317C5.45005 3.96207 5.17627 3.79354 4.89998 3.63507L4.75932 3.81366C4.53075 4.09035 4.2871 4.35194 4.02839 4.60096C3.76968 4.84998 3.49338 5.07888 3.20202 5.29268C2.89558 5.52158 2.58161 5.72783 2.26262 5.91397C1.94362 6.1001 1.6196 6.26611 1.28805 6.41703L0.094959 4.75188V4.7544Z" fill="#0059FF"/>
<path d="M12.7672 0.514053V7.20736H14.4753C14.6335 7.20736 14.7892 7.20485 14.9475 7.1973C15.1057 7.18975 15.2614 7.17466 15.4197 7.15202C15.5779 7.14448 15.7211 7.12939 15.8517 7.10675C15.9823 7.08411 16.1054 7.05393 16.2159 7.0162V8.68135C16.1104 8.74172 15.9924 8.78699 15.8617 8.82221C15.7311 8.85491 15.5855 8.88006 15.4297 8.89515C15.2564 8.91779 15.0881 8.93288 14.9249 8.94043C14.7591 8.94797 14.5958 8.95049 14.43 8.95049H10.6875V0.514053H12.7672ZM20.3277 3.37147V5.31834C20.2825 5.31834 20.2347 5.31834 20.182 5.32337C20.1292 5.32841 20.074 5.33344 20.0137 5.34098C19.9534 5.34098 19.8931 5.34601 19.8329 5.35104C19.7726 5.35859 19.7098 5.3611 19.642 5.3611C19.5139 5.38374 19.3933 5.40638 19.2778 5.42902C19.1622 5.45166 19.0517 5.47429 18.9462 5.49693V9.42337H16.8665V0.368164H18.9462V3.57522C19.0517 3.54503 19.1622 3.51736 19.2778 3.4897C19.3933 3.46454 19.5189 3.43939 19.6545 3.41675C19.7223 3.41675 19.7876 3.41424 19.8504 3.40669C19.9132 3.39914 19.971 3.39663 20.0238 3.39663C20.084 3.38908 20.1368 3.38405 20.187 3.37902C20.2347 3.37651 20.2825 3.37399 20.3277 3.37399V3.37147Z" fill="#1D1D1B"/>
<path d="M24.2883 0.372454C24.4792 0.412699 24.6651 0.473067 24.8435 0.546012C25.0092 0.636564 25.1624 0.744723 25.3031 0.873005C25.4463 1.00129 25.5794 1.14969 25.7075 1.32325C25.8205 1.50435 25.926 1.7081 26.0215 1.93699C26.1194 2.16589 26.2023 2.41491 26.2676 2.68405C26.3279 2.96828 26.3756 3.28018 26.4083 3.61724C26.4409 3.95429 26.4585 4.31901 26.4585 4.70889C26.4585 5.09877 26.4409 5.48613 26.4083 5.82822C26.3756 6.1703 26.3279 6.47466 26.2676 6.74631C26.1998 7.03055 26.1169 7.28711 26.0215 7.51097C25.9235 7.73484 25.818 7.93607 25.7075 8.10711C25.5794 8.28821 25.4463 8.44165 25.3031 8.56742C25.1599 8.6957 25.0067 8.79631 24.8435 8.87177C24.6651 8.95478 24.4792 9.01515 24.2883 9.05288C24.0975 9.09061 23.8965 9.10821 23.688 9.10821C23.4645 9.10821 23.256 9.09061 23.0651 9.05288C22.8742 9.01515 22.6959 8.95478 22.5326 8.87177C22.3518 8.79631 22.191 8.6957 22.0428 8.56742C21.8971 8.43913 21.7665 8.2857 21.656 8.10711C21.5279 7.93355 21.4199 7.73484 21.3295 7.51097C21.2391 7.28711 21.1637 7.03055 21.1059 6.74631C21.0381 6.47717 20.9904 6.1703 20.9603 5.82822C20.9301 5.48613 20.915 5.11386 20.915 4.70889C20.915 4.30392 20.9301 3.95429 20.9603 3.61724C20.9904 3.28018 21.0381 2.96828 21.1059 2.68405C21.1662 2.41491 21.2416 2.16589 21.3295 1.93699C21.4199 1.7081 21.5279 1.50435 21.656 1.32325C21.769 1.14969 21.8971 1.00129 22.0428 0.873005C22.1885 0.744723 22.3518 0.636564 22.5326 0.546012C22.6984 0.470552 22.8742 0.412699 23.0651 0.372454C23.256 0.332208 23.4645 0.30957 23.688 0.30957C23.8965 0.30957 24.0975 0.329693 24.2883 0.372454ZM23.5122 2.19607C23.457 2.21368 23.4067 2.23632 23.3615 2.25895C23.3012 2.29668 23.2485 2.34448 23.2033 2.39981C23.1581 2.45515 23.1179 2.5281 23.0802 2.61865C23.035 2.7092 22.9998 2.81987 22.9747 2.95067C22.9496 3.08147 22.9245 3.22736 22.9019 3.38331C22.8717 3.55687 22.8516 3.75306 22.8391 3.97441C22.829 4.19576 22.8215 4.44227 22.8215 4.71141C22.8215 4.99564 22.8265 5.24969 22.8391 5.47104C22.8491 5.69239 22.8717 5.88104 22.9019 6.0395C22.9245 6.21306 22.9496 6.36147 22.9747 6.48975C22.9998 6.61803 23.0375 6.72619 23.0802 6.81674C23.1179 6.90729 23.1581 6.98275 23.2033 7.04061C23.2485 7.10098 23.3012 7.14122 23.3615 7.16386C23.4067 7.20159 23.457 7.22674 23.5122 7.2368C23.5675 7.24686 23.6252 7.25441 23.6855 7.25441C23.7307 7.25441 23.7785 7.24938 23.8312 7.2368C23.884 7.22674 23.9392 7.20159 23.9995 7.16386C24.0447 7.14122 24.0924 7.10098 24.1402 7.04061C24.1879 6.98024 24.2356 6.90478 24.2808 6.81674C24.311 6.72619 24.3436 6.61803 24.3763 6.48975C24.4089 6.36147 24.4416 6.21306 24.4717 6.0395C24.4943 5.88104 24.5119 5.69239 24.527 5.47104C24.542 5.24969 24.5496 4.99564 24.5496 4.71141C24.5496 4.44227 24.542 4.19576 24.527 3.97441C24.5119 3.75306 24.4943 3.55687 24.4717 3.38331C24.4416 3.22484 24.4089 3.08147 24.3763 2.95067C24.3436 2.81987 24.311 2.7092 24.2808 2.61865C24.2356 2.5281 24.1879 2.45515 24.1402 2.39981C24.0924 2.34448 24.0447 2.29668 23.9995 2.25895C23.9392 2.23632 23.884 2.21619 23.8312 2.19607C23.7785 2.17846 23.7307 2.1684 23.6855 2.1684C23.6252 2.1684 23.5675 2.17846 23.5122 2.19607ZM27.315 9.42515V0.367423H29.3948V9.42515H27.315Z" fill="#1D1D1B"/>
<path d="M31.1352 2.14651H30.6304V0.458716H36.0357V2.14651H35.4078V7.25515H36.0357V8.94294H30.6304V7.25515H31.1352V2.14651ZM33.6068 7.25515V2.14651H32.9337V7.25515H33.6068ZM37.2589 5.3762C37.1987 5.39883 37.1308 5.41393 37.0505 5.42147C36.9726 5.42902 36.8847 5.43153 36.7867 5.43153C36.6737 5.43908 36.5632 5.4416 36.4552 5.4416H35.9654V3.64062H37.2564V0.368164H39.2231V9.43595H37.2564V5.37368L37.2589 5.3762Z" fill="#1D1D1B"/>
<path d="M0.685447 12.6446H0.23584V11.0473H4.95797V12.6446H4.49831V14.76H4.95797V16.3547H0.23584V14.76H0.685447V12.6446ZM7.95702 20.5427V18.9581H0.9316V17.0665H10.0217V20.5427H7.95702ZM2.89329 14.7625V12.6471H2.29047V14.7625H2.89329ZM8.19313 14.6091C8.09015 14.6317 7.98465 14.6493 7.87413 14.6619C7.76362 14.6745 7.65059 14.6795 7.53253 14.6795V16.654H5.70145V11.0146H7.53253V12.8232H8.19313V11.0146H10.0242V16.654H8.19313V14.6091Z" fill="#0059FF"/>
<path d="M17.6647 15.9881C17.8731 15.9881 18.0766 15.9881 18.2725 15.9831C18.4684 15.9806 18.6543 15.9705 18.8352 15.9554C19.0009 15.9554 19.1592 15.9453 19.3124 15.9277C19.4656 15.9101 19.6113 15.8875 19.7444 15.8648V17.4747C19.6389 17.5124 19.5184 17.5451 19.3802 17.5702C19.2421 17.5954 19.0863 17.613 18.913 17.6206C18.7322 17.6432 18.5438 17.6583 18.3454 17.6658C18.1469 17.6734 17.9435 17.6759 17.7325 17.6759H16.5067V18.7122H20.1363V20.4H10.8452V18.7122H14.4747V17.6759H11.3953V11.4756H19.5736V13.1634H13.3042V13.7268H19.4606V15.4146H13.3042V15.9881H17.6647Z" fill="#1D1D1B"/>
<path d="M21.1588 14.8964H24.3161V13.3093H21.214V11.5661H26.225V16.5842H23.0677V18.3047H26.539V20.0478H21.1562V14.8939L21.1588 14.8964ZM27.3377 20.5333V11.4756H29.4175V20.5333H27.3377Z" fill="#1D1D1B"/>
<path d="M39.2311 15.7639H38.7087C38.4876 14.1113 37.1589 12.8059 35.4986 12.6197V12.1594C35.4986 11.9356 35.3178 11.752 35.0917 11.752C34.8656 11.752 34.6848 11.9331 34.6848 12.1594V12.6197C33.0245 12.8059 31.6958 14.1113 31.4748 15.7639H31.0051C30.7815 15.7639 30.5981 15.945 30.5981 16.1714C30.5981 16.3978 30.779 16.5789 31.0051 16.5789H31.4572C31.6104 18.3069 32.9693 19.6929 34.6848 19.884V20.3569C34.6848 20.5808 34.8656 20.7644 35.0917 20.7644C35.3178 20.7644 35.4986 20.5833 35.4986 20.3569V19.884C37.2141 19.6929 38.573 18.3069 38.7262 16.5789H39.2311C39.4546 16.5789 39.638 16.3978 39.638 16.1714C39.638 15.945 39.4572 15.7639 39.2311 15.7639ZM35.4986 19.064C35.3655 19.0842 35.2299 19.0942 35.0917 19.0942C34.9536 19.0942 34.8179 19.0842 34.6848 19.064C33.4189 18.8804 32.4192 17.8567 32.2735 16.5789C32.2609 16.4707 32.2534 16.3626 32.2534 16.2544C32.2534 16.0884 32.2685 15.9249 32.2961 15.7664C32.5046 14.5616 33.4716 13.6158 34.6848 13.4423C34.8179 13.4221 34.9536 13.4121 35.0917 13.4121C35.2299 13.4121 35.3655 13.4221 35.4986 13.4423C36.7118 13.6183 37.6788 14.5641 37.8873 15.7664C37.9149 15.9249 37.93 16.0884 37.93 16.2544C37.93 16.3651 37.9225 16.4732 37.9099 16.5789C37.7642 17.8592 36.7645 18.8829 35.4986 19.064Z" fill="#0059FF"/>
<path d="M35.0914 17.8816C35.9875 17.8816 36.714 17.1542 36.714 16.2567C36.714 15.3593 35.9875 14.6318 35.0914 14.6318C34.1952 14.6318 33.4688 15.3593 33.4688 16.2567C33.4688 17.1542 34.1952 17.8816 35.0914 17.8816Z" fill="#0059FF"/>
</g>
<defs>
<clipPath id="clip0_245_61321">
<rect width="39.6357" height="20.7616" fill="white"/>
</clipPath>
</defs>
</svg>
