<svg width="60" height="60" viewBox="0 0 60 60" fill="none" xmlns="http://www.w3.org/2000/svg">
<path d="M0 21.7142C0 14.1136 0 10.3132 1.47919 7.41013C2.78034 4.85651 4.85651 2.78034 7.41013 1.47919C10.3132 0 14.1136 0 21.7142 0H38.2858C45.8865 0 49.6869 0 52.5898 1.47919C55.1434 2.78034 57.2196 4.85651 58.5208 7.41013C60 10.3132 60 14.1136 60 21.7142V38.2858C60 45.8865 60 49.6869 58.5208 52.5898C57.2196 55.1434 55.1434 57.2196 52.5898 58.5208C49.6869 60 45.8865 60 38.2858 60H21.7142C14.1136 60 10.3132 60 7.41013 58.5208C4.85651 57.2196 2.78034 55.1434 1.47919 52.5898C0 49.6869 0 45.8865 0 38.2858V21.7142Z" fill="#001E36"/>
<path d="M12.8555 43.963V17.5784C12.8555 17.3991 12.9305 17.2964 13.1055 17.2964C15.689 17.2964 18.2713 17.1426 20.8554 17.1426C25.0488 17.1426 29.589 18.5764 31.1805 22.963C31.5555 24.04 31.7555 25.1425 31.7555 26.2964C31.7555 28.5016 31.2555 30.322 30.2555 31.7579C27.462 35.7689 22.6205 35.7066 18.2805 35.7066V43.9375C18.3144 44.1811 18.1068 44.2964 17.9055 44.2964H13.1555C12.9555 44.2964 12.8555 44.1938 12.8555 43.963ZM18.3054 22.2451V30.8605C20.0263 30.9865 21.827 31.0002 23.4804 30.4504C25.3059 29.9236 26.3055 28.3437 26.3055 26.4503C26.3561 24.8369 25.4771 23.2889 23.9805 22.7067C22.347 22.0274 20.0688 21.9867 18.3054 22.2451Z" fill="#31A8FF"/>
<path d="M47.3488 29.1595C46.5924 28.7607 45.7867 28.469 44.9537 28.2925C43.8836 28.0407 39.6626 27.1587 39.6609 29.3658C39.6984 30.598 41.6544 31.2016 42.5186 31.5537C45.5526 32.5953 48.9859 34.4572 48.9184 38.2002C49.0112 42.8596 44.4967 44.7224 40.6269 44.7228C38.6124 44.7436 36.5136 44.4316 34.6699 43.5667C34.4938 43.4735 34.3807 43.2745 34.3882 43.0713V38.6129C34.3682 38.4342 34.5602 38.278 34.7102 38.4065C36.5166 39.499 38.6578 40.0295 40.7477 40.0578C41.6702 40.0578 43.4985 39.9685 43.4848 38.6129C43.4848 37.3122 41.2976 36.7141 40.4256 36.3837C39.1618 35.9326 37.9635 35.3075 36.8636 34.526C35.3263 33.4295 34.362 31.6715 34.3882 29.7374C34.3792 25.3501 38.5348 23.3808 42.2773 23.38C44.0267 23.3654 45.9056 23.495 47.5342 24.2056C47.7684 24.2744 47.8168 24.5212 47.8159 24.7422V28.9117C47.8307 29.1706 47.5434 29.2587 47.3488 29.1595Z" fill="#31A8FF"/>
</svg>
