<svg width="45" height="45" viewBox="0 0 45 45" fill="none" xmlns="http://www.w3.org/2000/svg">
<circle cx="22.5" cy="22.5" r="22.5" fill="#196AFF"/>
<path d="M20 24.5L26 27.5M26 18.5L20 21.5M29 32C27.3431 32 26 30.6569 26 29C26 27.3431 27.3431 26 29 26C30.6569 26 32 27.3431 32 29C32 30.6569 30.6569 32 29 32ZM17 26C15.3431 26 14 24.6569 14 23C14 21.3431 15.3431 20 17 20C18.6569 20 20 21.3431 20 23C20 24.6569 18.6569 26 17 26ZM29 20C27.3431 20 26 18.6569 26 17C26 15.3431 27.3431 14 29 14C30.6569 14 32 15.3431 32 17C32 18.6569 30.6569 20 29 20Z" stroke="white" stroke-width="2" stroke-linecap="round" stroke-linejoin="round"/>
</svg>
