<svg width="123" height="32" viewBox="0 0 123 32" fill="none" xmlns="http://www.w3.org/2000/svg">
<g clip-path="url(#clip0_395_71968)">
<path opacity="0.5" d="M11.1363 0.0859375H31.9447V21.3044H11.0512C5.23024 21.3044 0.5 16.5681 0.5 10.7397C0.5 4.86096 5.26505 0.0859375 11.1363 0.0859375Z" fill="#0059FF"/>
<path opacity="0.5" d="M21.3941 31.9121L0.500618 31.9121L0.500618 10.6937L21.309 10.6937C27.1803 10.6975 31.9453 15.4687 31.9453 21.3474C31.9453 27.1797 27.2151 31.9121 21.3941 31.9121Z" fill="#0059FF"/>
<path opacity="0.5" d="M48.7502 0.0859375H36.6133V31.9117H48.7502V0.0859375Z" fill="#0059FF"/>
<path opacity="0.5" d="M68.0502 0.0859375H36.6133V9.41911H68.0502V0.0859375Z" fill="#0059FF"/>
<path opacity="0.5" d="M60.8911 12.9746H36.6133V22.1529H60.8911V12.9746Z" fill="#0059FF"/>
<path opacity="0.5" d="M63.2383 31.9117H79.0419V0.0859375L63.2383 31.9117Z" fill="#0059FF"/>
<path opacity="0.72" d="M79.042 31.9117H94.8494L79.042 0.0859375V31.9117Z" fill="#0059FF"/>
<path opacity="0.5" d="M99.7578 27.5197C102.632 30.2887 106.526 31.9966 110.827 31.9966C115.438 31.9966 119.58 30.0292 122.496 26.9001L111.434 15.8242L99.7539 27.5197H99.7578Z" fill="#0059FF"/>
<path opacity="0.5" d="M110.827 0C106.615 0 102.794 1.64589 99.9395 4.31417L111.438 15.8277L122.338 4.91444C119.429 1.88987 115.352 0 110.831 0L110.827 0Z" fill="#0059FF"/>
<path opacity="0.72" d="M99.9396 4.31442C96.8144 7.23442 94.8496 11.3821 94.8496 15.9983C94.8496 20.6146 96.7371 24.6112 99.7578 27.5196L111.438 15.824L99.9396 4.31055V4.31442Z" fill="#0059FF"/>
</g>
<defs>
<clipPath id="clip0_395_71968">
<rect width="122" height="32" fill="white" transform="translate(0.5)"/>
</clipPath>
</defs>
</svg>
