<svg width="24" height="24" viewBox="0 0 24 24" fill="none" xmlns="http://www.w3.org/2000/svg">
<path d="M18.9237 6.3025C17.8346 9.01819 15.1047 12.7098 12.8204 14.5415L11.4272 15.6589C11.2504 15.7862 11.0736 15.8994 10.8756 15.9771C10.8756 15.8498 10.8685 15.7084 10.8473 15.574C10.7695 14.98 10.5008 14.4284 10.0269 13.9545C9.54604 13.4736 8.95905 13.1907 8.35792 13.1129C8.21648 13.1059 8.07504 13.0917 7.93359 13.1059C8.01139 12.8866 8.13161 12.6815 8.28013 12.5118L9.38338 11.1186C11.208 8.83431 14.9138 6.09033 17.6224 5.0083C18.0396 4.85271 18.4428 4.96587 18.6973 5.22754C18.9661 5.4892 19.0934 5.89231 18.9237 6.3025Z" stroke="#666666" stroke-width="1.5" stroke-linecap="round" stroke-linejoin="round"/>
<path d="M10.8747 15.9777C10.8747 16.7557 10.5777 17.4982 10.019 18.064C9.58756 18.4954 9.00058 18.7924 8.30044 18.8844L6.5607 19.0753C5.61304 19.1814 4.79974 18.3752 4.9129 17.4134L5.10384 15.6736C5.27357 14.1248 6.56777 13.1347 7.93976 13.1064C8.0812 13.0994 8.22972 13.1064 8.36409 13.1135C8.96522 13.1913 9.5522 13.4671 10.0331 13.9551C10.5069 14.4289 10.7757 14.9806 10.8535 15.5746C10.8605 15.709 10.8747 15.8434 10.8747 15.9777Z" stroke="#666666" stroke-width="1.5" stroke-linecap="round" stroke-linejoin="round"/>
<path d="M13.5717 13.7494C13.5717 11.9036 12.0724 10.4043 10.2266 10.4043" stroke="#666666" stroke-width="1.5" stroke-linecap="round" stroke-linejoin="round"/>
</svg>
