<svg width="20" height="20" viewBox="0 0 20 20" fill="none" xmlns="http://www.w3.org/2000/svg">
<path d="M2.98827 11.4823C4.47113 12.9565 7.05721 14.9999 9.99942 14.9999C12.9416 14.9999 15.5272 12.9565 17.0101 11.4823C17.4012 11.0936 17.5974 10.8985 17.7219 10.5168C17.8107 10.2444 17.8107 9.75561 17.7219 9.48325C17.5974 9.10151 17.4012 8.90642 17.0101 8.51759C15.5272 7.0434 12.9416 5 9.99942 5C7.05721 5 4.47113 7.0434 2.98827 8.51759C2.59688 8.90669 2.40117 9.10137 2.2766 9.48325C2.18775 9.75561 2.18775 10.2444 2.2766 10.5168C2.40117 10.8986 2.59688 11.0932 2.98827 11.4823Z" stroke="#808080" stroke-width="1.5" stroke-linecap="round" stroke-linejoin="round"/>
<path d="M8.3326 10C8.3326 10.9205 9.07879 11.6667 9.99927 11.6667C10.9197 11.6667 11.6659 10.9205 11.6659 10C11.6659 9.07953 10.9197 8.33333 9.99927 8.33333C9.07879 8.33333 8.3326 9.07953 8.3326 10Z" stroke="#808080" stroke-width="1.5" stroke-linecap="round" stroke-linejoin="round"/>
</svg>
