<svg width="18" height="18" viewBox="0 0 18 18" fill="none" xmlns="http://www.w3.org/2000/svg">
<circle cx="9" cy="9" r="9" fill="#FF0000"/>
<path d="M9.6943 7.70294C9.66092 8.60411 9.62821 9.5056 9.59318 10.4068C9.58062 10.7283 9.31559 10.9794 8.99703 10.9778C8.67814 10.9761 8.42005 10.724 8.40782 10.3998C8.34305 8.67978 8.27828 6.95974 8.2145 5.23937C8.21054 5.12834 8.20129 5.01499 8.2188 4.9066C8.28423 4.50476 8.67351 4.21429 9.07832 4.25592C9.48876 4.29789 9.80269 4.63727 9.79046 5.0487C9.7637 5.93367 9.72702 6.8183 9.6943 7.70327V7.70294Z" fill="white"/>
<path d="M9.00339 13.7466C8.5662 13.7476 8.20996 13.392 8.20996 12.9552C8.20996 12.5183 8.56686 12.1634 9.00438 12.165C9.43629 12.1664 9.78923 12.5186 9.79154 12.9502C9.79385 13.3881 9.4396 13.7456 9.00306 13.747L9.00339 13.7466Z" fill="white"/>
</svg>
