<svg width="24" height="24" viewBox="0 0 24 24" fill="none" xmlns="http://www.w3.org/2000/svg">
<path d="M12.0018 3C11.5499 3 11.1836 3.36632 11.1836 3.81817V7.09083C11.1836 7.54268 11.5499 7.909 12.0018 7.909C12.4536 7.909 12.8199 7.54268 12.8199 7.09083V3.81817C12.8199 3.36632 12.4536 3 12.0018 3Z" fill="#999999"/>
<path d="M12.0018 16.9082C11.5499 16.9082 11.1836 17.2745 11.1836 17.7264V19.3627C11.1836 19.8145 11.5499 20.1809 12.0018 20.1809C12.4536 20.1809 12.8199 19.8145 12.8199 19.3627V17.7264C12.8199 17.2745 12.4536 16.9082 12.0018 16.9082Z" fill="#999999"/>
<path d="M20.1846 11.1816H16.9119C16.4601 11.1816 16.0938 11.548 16.0938 11.9998C16.0938 12.4517 16.4601 12.818 16.9119 12.818H20.1846C20.6364 12.818 21.0027 12.4517 21.0027 11.9998C21.0027 11.548 20.6364 11.1816 20.1846 11.1816Z" fill="#999999"/>
<path d="M7.909 11.9998C7.909 11.548 7.54268 11.1816 7.09083 11.1816H3.81817C3.36632 11.1816 3 11.548 3 11.9998C3 12.4517 3.36632 12.818 3.81817 12.818H7.09083C7.54268 12.818 7.909 12.4517 7.909 11.9998Z" fill="#999999"/>
<path d="M18.3632 5.63613C18.0437 5.3166 17.5257 5.3166 17.2061 5.63613L14.892 7.95028C14.5725 8.2698 14.5725 8.78781 14.892 9.10733C15.0517 9.26709 15.2611 9.347 15.4705 9.347C15.6799 9.347 15.8893 9.26715 16.049 9.10733L18.3632 6.79318C18.6827 6.47365 18.6827 5.95565 18.3632 5.63613Z" fill="#999999"/>
<path d="M7.95208 14.893L5.63804 17.2071C5.31857 17.5266 5.31857 18.0446 5.63804 18.3642C5.7978 18.5239 6.00719 18.6038 6.21659 18.6038C6.42599 18.6038 6.63538 18.5239 6.79514 18.3642L9.10924 16.05C9.42871 15.7305 9.42871 15.2125 9.10924 14.893C8.78967 14.5734 8.27166 14.5734 7.95208 14.893Z" fill="#999999"/>
<path d="M6.79513 5.6361C6.47561 5.31658 5.9576 5.31664 5.63808 5.6361C5.31856 5.95563 5.31856 6.47363 5.63808 6.79316L7.95218 9.10731C8.11199 9.26707 8.32134 9.34698 8.53073 9.34698C8.74007 9.34698 8.94952 9.26707 9.10923 9.10736C9.42875 8.78784 9.42875 8.26984 9.10923 7.95031L6.79513 5.6361Z" fill="#999999"/>
</svg>
