<svg width="28" height="28" viewBox="0 0 28 28" fill="none" xmlns="http://www.w3.org/2000/svg">
<path d="M3.5 14C3.5 19.799 8.20101 24.5 14 24.5C19.799 24.5 24.5 19.799 24.5 14C24.5 8.20101 19.799 3.5 14 3.5C8.20101 3.5 3.5 8.20101 3.5 14Z" fill="#196AFF"/>
<path d="M12.25 12.25L18.6667 9.33333L15.75 15.75L9.33333 18.6667L12.25 12.25Z" fill="#196AFF"/>
<path d="M3.5 14C3.5 19.799 8.20101 24.5 14 24.5C19.799 24.5 24.5 19.799 24.5 14C24.5 8.20101 19.799 3.5 14 3.5C8.20101 3.5 3.5 8.20101 3.5 14Z" stroke="#196AFF" stroke-width="1.5" stroke-linecap="round" stroke-linejoin="round"/>
<path d="M12.25 12.25L18.6667 9.33333L15.75 15.75L9.33333 18.6667L12.25 12.25Z" stroke="#196AFF" stroke-width="1.5" stroke-linecap="round" stroke-linejoin="round"/>
<path d="M12.2487 12.2526L18.6654 9.33594L15.7487 15.7526L9.33203 18.6693L12.2487 12.2526Z" fill="#196AFF" stroke="white" stroke-width="1.5" stroke-linecap="round" stroke-linejoin="round"/>
</svg>
